<svg height="512" width="512" xmlns="http://www.w3.org/2000/svg"><g fill="#FFFFF"><path d="M90.355 152.329c-1.673-1.595-2.879-3.24-2.166-2.724-3.595-3.063-3.363-3.437-4.311-3.352-2.39-1.884-4.318-4.513-1.679-2.292l-6.476-5.845 3.603 3.764c-.716-.288-2.155-1.791-3.624-3.306l-.551-.566-.137-.14-.068-.07-.278-.305-.243-.3-.24-.293-.119-.144c-.037-.042-.123-.182-.179-.268a14.952 14.952 0 01-.684-1.192c-.209-.398-.269-.689-.396-1.016-.099-.316-.229-.608-.278-.891-.118-.562-.219-1.037-.327-1.382l.052.68c.034.435.097 1.051.342 1.762.116.362.2.717.47 1.203.119.229.248.463.387.696l.216.349c.073.114.162.251.192.278l.543.656.035.042.268.296.078.077.156.154.314.311a9006.66 9006.66 0 003.355 3.313l-.476-.191c1.671 1.365 4.557 4.378 5.525 5.467-.233-.092-.244.126-1.433-1.037 8.019 8.084 2.919 1.419 9.742 7.957a27.827 27.827 0 01-1.613-1.691zm5.789 7.89l3.347 2.271 4.573 4.85c.239-.132 3.821 3.15 1.661.663-.484-.425-1.437-1.268-2.146-2.01.927.125 6.466 6.065 5.487 4.275-3.833-3.62-4.316-4.28-6.936-6.248-3.379-3.453-5.774-6.033-7.223-7.774-1.075-.953-1.464-.85-2.801-2.089l.891.859-.464.742c1.202.948 2.157 2.023 3.362 3.203l-6.22-4.811c1.213 2.343 6.964 7.431 8.895 9.831-2.177-3.195 2.391 1.884-2.426-3.762zm-4.037-6.064l-.137-.134.137.134zm275.906 37.544c-1.162 1.183-1.365 1.671-1.462 1.913l13.191-13.214c-.572.255-4.571 3.862-2.125 1.226-1.309.958-4.61 4.56-4.896 5.274l.715-1.199c-2.732 3.352-5.418 4.821-3.617 2.655l-.254.26-7.233 9.617c3.161-3.025 1.971-2.793 5.681-6.532zM94.05 140.549c1.766 1.655 2.034 1.809 1.898 1.556a35.844 35.844 0 00-1.898-1.556zm266.592 59.93l-2.267 3.012c.956-1.157 1.75-2.219 2.267-3.012zm12.612-23.954c-.015-.025-.004-.071-.1-.028l-.994 1.375.03-.03 1.064-1.317zm-71.12 85.262l-.839.893c.313-.319.587-.614.839-.893zM406.89 138.628l-5.512 6.229c.613-.952-2.168 1.93-1.129.496-.42.475-2.45 2.639-1.791 2.154l1.187-1.208c-2.601 3.59-.536 1.905-5.292 7.415 3.48-2.893 4.608-4.559 6.071-6.471l1.468-1.604 4.189-5.573.809-1.438zm-228.236 80.908l.103.026c-.073-.046-.097-.044-.103-.026zm.517.124l-.415-.098c.395.236 1.679 1.368.415.098zm182.119-20.47c.012.172-.215.623-.648 1.29l1.689-2.249-1.041.959z"/><path d="M364.69 193.629l4.875-5.015 1.566-2.08c-1.796 1.99-3.942 4.269-6.441 7.095zm-54.454 60.638c-10.167 10.319 1.935-3.098-2.912 1.468-2.775 2.912-3.503 4.192-5.189 6.052 7.889-8.36-.19 2.012 7.856-6.328-.665 1.665-5.364 6.454-8.279 9.099-3.629 2.665 2.396-3.103 2.637-4.288-3.209 3.366-2.542 2.875-3.669 4.539-5.274 5.051-10.089 11.273-13.84 13.688-3.631 3.843-3.154 3.827-5.05 6.23.089.943 5.829-5.288 7.62-6.267-.331.244-.978.717-.888.481l3.339-3.122c-3.246 2.888-.089-.941 1.51-2.621 1.182-1.203 3.529-3.596 3.345-3.127l-1.693 1.916c2.486-2.161 4.75-5.503 7.483-7.678.244-.013-.63.971-.699 1.184 2.397-3.103 5.07-5.733 8.891-10.053l-1.848 2.871c2.689-3.822 10.223-11.033 15.631-15.843-.653.48-1.735 1.44-1.222.729 2.879-3.123 5.496-5.039 4.376-3.38 2.508-3.355 11.526-10.813 14.971-15.359l15.771-20.968a48.548 48.548 0 01-2.043 2.324c-2.118 1.221-2.964 2.175-.461-1.174-2.635 3.11-1.177 2.373-5.475 6.708 1.468-1.918 1.38-2.861-2.808 1.22-9.887 10.784-15.461 18.91-24.462 29.215-.702.011-8.185 7.687-11.948 11.289 1.034-1.778 3.662-4.617 6.424-7.529l-7.169 7.069-.199 1.655z"/><path d="M333.073 229.105c-.289.227-.574.478-.864.735.175-.117.436-.333.864-.735zm-14.595 15.585c.022-.049 0-.047-.002-.073l-.873.926.875-.853zm39.61-43.86c.514-.712.94-1.194 1.454-1.906l-1.218 1.398c-.388.481-.547.735-.236.508zm2.675-1.458l-.186.47.713-.652c-.005-.148-.146-.136-.527.182zm-92.796 90.91l-.907 1.057c.586-.598.809-.883.907-1.057z"/><path d="M298.239 265.091c3.528-3.596-.091-.942 4.946-5.984l-1.51 1.447c3.395-3.836 9.851-10.089 14.129-14.404-.279.69 2.855-2.355 2.672-1.533 2.862-3.012 5.699-5.991 6.883-7.833 1.927-1.712 4.4-4.766 6.851-6.942-1.17.783 2.64-3.947-2.754 1.919.428-.48.099-.24.521-.716-3.896 3.357-4.893 5.268-8.011 8.398-2.058 1.677 2.747-3.362.908-1.676-3.723 4.078-12.47 12.011-11.494 12.47-2.788 2.889-3.338 3.123-4.316 3.838-3.726 5.254-16.993 16.337-15.975 17.273 1.601-1.678 4.293-4.328 6.489-6.943l.661.686zm53.917-58.228l-.702.684c.206-.203.465-.454.702-.684zm47.784-42.122l-.851 2.128c-8.33 8.635-11.576 11.522-18.968 18.964-.654.479.19-.476.618-.96-5.14 5.288-13.075 12.956-16.578 17.044-1.663 1.654-6.222 5.807-4.761 3.97-.751.864-1.619 1.842-2.568 2.75-.476.017 2.012-2.144 1.878-2.385-.752.72-1.083.963-1.18 1.205 1.041-1.436-2.064.506 3.726-5.255 2.773-1.7-3.943 4.068-2.031 3.339 1.92-1.912 1.468-1.918 1.56-2.154 2.455-2.428 2.539-2.215 2.544-1.95.752-1.119 4.078-3.934 5.092-5.505 4.701-4.793.186.703 3.279-2.405l1.188-2.387 5.269-5.042c7.252-7.674-2.104.032 6.088-8.838-.809 1.434 3.139-1.462 7.234-5.308-2.354 2.397-6.354 7.179-9.599 10.068 4.793-3.854-5.894 6.007-3.112 4.3 1.882-2.391 5.41-5.987 8.325-8.628l-.855.966c3.019-2.891 4.628-5.754 8.944-9.592 2.007-2.045 1.797-1.497 1.58-1 1.625-1.802 3.04-3.452 3.178-3.325zm-4.288 4.54l-2.771 2.651c.742-.545 1.75-1.558 2.771-2.651zm-261.521 28.768l-.774-.872c.152.208.451.532.774.872zm247.804-3.606l-1.589 1.55a53.641 53.641 0 001.589-1.55zm-33.256 37.215l-2.153 2.433a31.092 31.092 0 002.153-2.433zM152.81 216.81l.072.081.394.33-.466-.411zm123.797 84.117a22.84 22.84 0 00-1.41 1.146c.124-.006.643-.44 1.41-1.146zm72.468-69.718l-.15.128-.246.321.396-.449zm50.129-50.54l.945-1.064c-.461.486-.73.798-.945 1.064zm-3.912.514c.347-.376.674-.741.917-1.036l-.917 1.036zm27.776-56.318l-2.026 2.2c1.029-1.049 1.614-1.702 2.026-2.2zm-21.79 51.117a6.02 6.02 0 00.247-.41c-.274.312-.378.486-.247.41zm-278.791 6.849l.13.126.123-.017-.253-.109zm-6.013-4.266l-1.907-1.808a37.9 37.9 0 001.907 1.808zM238.25 301.853c-.473-.646-1.683-2.063-.971-1.549-1.195-.946-1.428-.571.971 1.549zM136.541 189.384c-.418-.256-.899-.613-1.38-.973.87.695 1.628 1.309 1.38.973zm-1.38-.973l-1.281-1.01c.442.364.874.705 1.281 1.01zm120.7 120.015c.113.093.295.12.545.115-.083-.139-.274-.109-.545-.115z"/><path d="M113.163 175.161c-.476-.19-8.86-7.955-2.143-1.09-.707.183-4.563-4.151-6.483-5.852 1.211 1.419-.939-.368-.699.19.952.844 2.147 1.784 3.6 3.3.479.886-1.911-1.229-3.594-3.063 1.932 2.402-3.102-2.397-.215.85 6.713 6.399 11.508 10.871 16.768 14.831-3.844-3.63-8.157-7.678-11.043-10.922l1.673.904c3.126 3.803 5.517 5.688 8.888 9.131l-7.449-7.858c-3.266-3.905-.793-1.581 2.103 1.176-.691-.7-1.297-1.352-1.406-1.597zm8.533 1.782l-.117-.139c-.126-.099-.274-.229-.361-.284l.478.423zm309.546-44.684l-.512.803c.484-.614.608-.829.512-.803zm-306.844 51.113l-.005-.005c.055.047.068.06.005.005zm301.786-46.379c.014-.033.025-.068.055-.121-.047.071-.037.082-.055.121zm3.922 12.667c.048-.012.073-.005.162-.058.328-.371.14-.22-.162.058zm-3.899-12.619c-.012-.012-.034-.013-.023-.048 0 .025-.016.066.023.048zm-78.129 80.954s.317-.185.777-.517c.118-.189-.077-.077-.777.517zm16.271-15.132l.329-.244-.329.244zM240.231 307.3a63.404 63.404 0 001.872 1.831 42.098 42.098 0 00-1.872-1.831zm186.008-170.428c.123-.205.314-.48.647-.917-.369.48-.551.747-.647.917zM326.082 243.878l.441-.525-.307.268-.134.257z"/><path d="M317.606 251.788c.236-.323.319-.497.437-.693-2.765 3.084-8.311 8.284-8.538 9.329.982-1.003 6.367-5.907 5.73-4.791 1.937-2.141 5.236-4.868 6.268-6.033-3.57 3.123-.707.017 1.414-2.381 2.174-1.936-.058.716 1.788-.978l4.709-4.8-4.195 4.087.864-1.652-.385.459c-6.824 7.193-1.171.022-8.092 7.453zm.436-.693a20.14 20.14 0 001.025-1.219c-.654.667-.87.964-1.025 1.219zm-29.275 27.977l-1.178 1.303 1.178-1.303zm85.943-95.987c.239-.007 4.561-3.851 4.185-4.081l-3.754 3.563-.431.518zm-164.607 86.374c.445.464.898.923 1.359 1.374l.313.219c-.234-.323-1.189-1.167-1.672-1.593z"/><path d="M314.115 257.037c.702-.795.987-1.176 1.119-1.404-.46.509-.869.995-1.119 1.404zm-103.549 11.445c-.493-.665-1.214-1.65-1.22-1.887-1.183-1.188-2.173-1.861-3.437-3.011 1.406 1.317 2.951 2.924 4.657 4.898z"/><path d="M205.806 263.492c.036.032.072.063.104.093l-.104-.093z"/><path d="M372.153 185.385l-1.021 1.149.484-.646-2.9 2.717c-.319.358-.668.743-1.108 1.205.171-.193.28-.366.334-.486l-.936.865c-1.923 2.55-7.259 8.344-8.681 10.134-1.99 2.258-4.514 4.934-6.169 6.541 1.518-1.505 3.462-3.574 2.686-3.146-3.249 2.889-5.26 3.86-10.109 9.603l3.099-3.113-6.311 7.656c-2.726 2.168 3.15-3.821 3.877-5.033-5.1 5.763-10.503 9.395-12.438 12.495-.7.009-1.871.029-5.401 3.627 2.964-2.176-1.883 2.39.646.703-1.034 1.429-4.101 3.852-4.047 4.314l.19-.476c-6.632 5.539-7.768 8.388-10.09 11.273-7.146 7.427-10.716 10.55-16.601 16.551-.465.003-2.719.984-5.079 3.393-.796 1.422-6.028 6.944-6.177 7.895 4.43-4.096 3.151-3.823 5.609-6.469 2.545-1.704.608.223 3.761-2.427-2.505 2.178-10.361 10.799-13.319 12.969l.85-.961c-4.333 3.854-6.106 3.645-12.326 11.064l-3.008 3.5c.116-.197.087-.262.135-.382-2.684 2.643-3.776 3.486-4.888 4.449-.28.242-.554.485-.866.778-.336.315-.699.67-1.121 1.1-.848.862-1.92 2.013-3.545 3.817.501-.557.17-.313.672-.87a48.622 48.622 0 00-2.354 2.23c-1.432-1.42-2.86-2.692-4.277-3.939l-2.083-1.833-1.715-1.536c-1.212-1.881.696.038 1.895.753-5.768-6.025-12.705-11.815-16.774-15.069l-3.605-3.997c2.392 2.116 5.5 4.519 5.014 3.629-2.157-2.023-1.911-1.461-4.803-4.481.718.29 2.158 1.331 3.817 2.452-5.756-6.472-2.125-.608-5.748-5.543-1.917-1.926-3.344-2.729-3.813-2.681l-3.142-3.818c-.716-.058-5.031-4.336-7.896-7.102-.485-.202 1.916 2.618 3.11 3.558-.469.049-3.585-2.825-5.507-4.757-.016-1.396-12.713-12.514-9.623-11.049-8.878-8.429-21.104-20.516-27.104-25.939-1.693-2.074-5.522-5.922-2.897-3.945-6.963-6.969-11.263-9.854-17.989-16.956-.485-.659 3.132 3.119 3.116 2.644-4.795-4.243-7.93-8.515-15.127-15.342 1.192 1.167 1.679 1.369 1.914 1.461.009.237-3.109-2.635-5.035-4.338-.96-1.079 1.441 1.275.957.615-13.21-13.88-24.467-23.262-37.908-36.765 3.838 3.856 5.749 4.854 5.978 4.708l-3.761-3.777c-1.681-1.224-4.51-4.055-7.047-6.25-.205-.376-1.263-1.62.019-.553-3.491-3.954-6.607-6.653-9.961-9.533l-2.569-2.217-.328-.283-.263-.169c-.171-.116-.33-.25-.535-.307a3.298 3.298 0 00-1.202-.312c-.42-.03-.855.01-1.268.141-.193.079-.451.125-.55.223-.068.04-.14.072-.217.099l-.061.021-.101.085-.203.17-.412.343-.052.043-.007.005c.265-.239.072-.063.13-.116l-.006.009-.013.018-.052.071-.107.138-.23.27a5.05 5.05 0 01-.162.32c-.156.226-.159.389-.246.554-.052.039-.074.254-.095.457l-.071.596.008-.674c.005-.091-.006-.26.013-.32.019-.062.035-.128.048-.203a2.11 2.11 0 00.027-.249l.132-.332c.064-.253.222-.479.387-.731l.06-.098.03-.05.015-.025.004-.006.002-.003-.104.093.015-.014.235-.228.485-.466c.39-.277 1.11-.667 1.874-.756a4.437 4.437 0 012.247.414c.328.211.617.369.947.647l.906.767 1.87 1.582-2.413-3.054 5.277 4.438c-2.688-3.14-5.627-5.129-6.004-5.742.245.066.515.257.806.476l.446.337.367.328c.479.424.899.766 1.016.695-.683-.734-1.118-1.258-1.784-1.753-.285-.254-.595-.399-.883-.532-.287-.133-.545-.266-.827-.31l-.806-.169-.848-.02c-.294-.027-.605.05-.946.096-.346.028-.704.146-1.104.286 1.007-.487 2.367-.67 3.746-.272.68.196 1.385.509 1.99.999.149.113.332.242.455.35l.363.321.736.658a312.624 312.624 0 016.217 5.769l11.426 10.958c.971.861-.954-.614-1.188-.705 2.399 2.352 3.605 3.997 6.717 6.865 2.155 1.559-1.198-1.636-2.64-3.141.462-.056 1.188.701 2.868 2.303.011.702 8.887 9.132 10.581 11.669 8.878 8.661-.509-2.296 7.902 6.415l2.162 2.952c5.275 4.665 11.974 10.822 17.513 16.53l-1.198-1.172c-.958-.621.242.788.733 1.452 4.081 4.419 8.379 7.758 10.559 10.729 5.267 4.427 13.659 12.198 19.418 17.523.975 2.016-7.671-6.788-10.303-8.768l5.047 5.043c-3.125-3.112-4.555-4.145-6.72-5.718 4.324 4.518 6.234 5.516 10.557 9.576-.467-.185.005.462 1.935 2.399l.895.203c.007.064.195.304.77.923l7.669 7.247c-1.435-1.73-1.21-2.108-3.132-4.039.486.89-1.188-.704-3.111-2.638 1.915 1.464-1.689-2.07-1.462-2.216 3.856 3.875 8.651 8.577 11.28 11.016l.505 1.142c3.603 3.765 7.67 7.477 10.076 10.068l-.957-.619c4.322 4.517 8.879 8.664 12.492 12.898 4.306 3.578 9.572 8.237 13.174 11.079 2.134 1.312 11.051 12.082 16.074 15.948.255.344-3.362-2.743-5.034-4.104 2.893 3.02 5.754 4.859 6.248 6.219-6.489-6.78.012.701-3.1-2.164 3.114 3.099 6.467 6.296 8.146 7.664-5.03-5.023 2.384 1.188-2.895-3.713 2.05 1.704 4.376 3.782 6.741 6.014l2.278 2.165c.537.528 1.06 1.074 1.583 1.651l.325-.289c0 .374.283.264 1.246-.545.02-.019.559-1.1.54-1.081.548-.499.114.096-.239.621-.344.516-.607.963.651-.199.308-.424.43-.624 1.228-1.475a100.9 100.9 0 012.15-2.239l4.738-4.701c3.126-3.092 5.882-5.914 6.45-7.339 3.81-3.133-6.263 6.948-.617 2.131-2.733 3.353-7.286 7.197-7.862 8.628 2.861-3.105 1.45-.728 3.379-2.647l3.063-3.591-.752.72c5.179-5.987 14.219-14.639 21.28-21.837 5.608-6.471 9.144-11.25 16.435-18.447-1.887 2.391 6.259-5.773 2.161-.75 3.575-3.129 6.62-6.702 6.5-6.955-3.014 2.885-1.098.977-3.673 3.369 1.45-1.903 5.325-5.758 7.061-7.198-.752.719-.429.483-.52.716 3.673-3.37 1.462-1.913 3.912-4.552 1.124-.49 5.704-5.534 8.191-7.694l2.918-3.821c-1.555 2.148 3.337-3.121 4.142-3.378 2.207-2.625 3.865-5.02 7.625-8.62-1.365 1.675 3.581-3.133 3.946-2.896 6.59-6.013 9.614-11.257 16.014-16.793-.115.255-1.121 1.658.698-.011 1.29-1.458 3.731-3.828 5.169-5.331l-.038.055.068-.085c.703-.736 1.119-1.226 1.063-1.317 2.222-2.811 3.217-4.41 7.919-9.612-.709.018-4.755 4.333-6.455 6.254l-1.224 1.905c-2.016.975-4.375 4.556-5.689 5.52 2.36-3.581 11.065-11.986 15.822-17.494-3.609 2.648-10.492 9.38-16.373 15.378l2.823-2.409-3.102 3.114 3.375-2.641c-3.008 2.88-5.459 5.519-8.141 8.158 3.108-3.122 4.798-3.859 2.96-2.172-3.81 3.133-3.396 3.838-6.07 6.471 1.509-1.446 3.436-3.361 2.395-1.925-5.646 4.818-6.789 6.501-11.99 10.816 1.165-.015-5.888 6.002-6.129 7.186l2.256-2.16-4.335 5.031c-4.79 3.853 3.348-4.303-3.559 1.941-6.126 6.01-5.365 6.457-10.091 11.272 1.231-1.913 4.722-5.988 8.581-9.828l-2.495 2.167c1.035-1.431 6.401-6.714 9.079-9.351-4 4.782 2.175-1.935 4.479-3.626.037-.697-2.73 2.174.334-1.419-3.112 3.125-3.541 3.609-7.632 7.451 8.725-8.425 6.566-8.855 14.327-16.063-3.301 3.599 1.679-.727 2.254-.982 1.584-1.663 4.799-5.035 6.07-6.471l-1.702.75c4.155-4.566 6.678-5.072 11.22-10.596.368-.939-4.523 4.33-3.674 3.369 6.587-7.185 9.835-8.898 16.308-14.653.202-.489-.171-.719 1.716-3.11-.386.958 1.343-.478-.854 2.137 2.165-1.923 4.376-4.555 6.068-6.469-4.423 4.087 1.33-2.152 1.943-3.107 2.253-2.156-.387.957-1.66 2.396 1.847-1.693 4.37-3.375 4.947-4.808.37.231-4.155 5.739-7.357 9.098l2.26-2.163c-1.369 1.678-1.698 1.919-3.94 4.068 2.383-1.916 2.428-1.446 2.142-.731-.325.237.085-.229-.227-.002-1.845 1.691-3.118 3.129-2.548 2.879-1.186 1.994 2.704-2.199 4.104-3.195l2.617-2.778 7.886-10.483c3.772-4.075 5.848-5.529 8.991-8.28l.461-1.156c3.45-3.378 6.782-6.49 5.034-3.862-.239.007-.662.485-1.42 1.21-.052.145-.189.349-.378.592-.05.092-.069.151-.108.23l5.952-6.348c-5.705 6.712.32.94-.103 2.595l3.034-3.236 1.115-1.188.513-.546.805-.713.226-.196a1.55 1.55 0 01.191-.139l.241-.16c.315-.204.603-.37.841-.5.481-.263.76-.381.745-.368a12.15 12.15 0 00-2.069 1.082l-.14.099-.248.172-.376.25-.036.022-.005.003-.002.001-.318.287-.008.006-.016.012-.058.042-.091.062c-.102.063-.122.047-.083-.027.021-.037.055-.088.103-.152l.038-.05.003-.003.33-.299.006-.006.012-.013.024-.025.11-.111c.163-.161.346-.34.601-.567a12.76 12.76 0 011.996-1.18 16.157 16.157 0 011.816-.576 21.676 21.676 0 011.608-.202c.127.042.432.119.878.186.445.08 1.033.131 1.7.361.336.101.696.217 1.072.349.361.167.74.36 1.13.57.4.197.772.458 1.139.758l.559.454.277.238.034.03.316.35.032.037.064.075.525.608c.309.419.692 1.045.977 1.601l.213.434.131.368.239.744c.169.496.247 1.001.296 1.508.153 1.007.034 1.998-.106 2.898-.226.89-.463 1.712-.849 2.358l.106-.435c-.333.597-.661 1.277-1.194 1.863-.247.299-.531.625-.792.903l-.495.474-2.123 2.096a186.818 186.818 0 00-4.178 4.345c.232 0-2.459 3.824-3.683 5.729 4.487-4.227 2.04-1.502 2.604-1.637-.471.432-1.285 1.238-1.336 1.377-.525.722.978-.715 1.215-.724 2.235-2.396 4.532-4.797 6.447-6.896a79.964 79.964 0 002.528-2.882l.614-.757c.356-.447.674-.89.951-1.313.526-.864.843-1.723 1.059-2.42-.529.973-.998 1.895-1.631 2.642-.287.37-.642.803-.887 1.088l-.427.51c-.565.688-1.144 1.407-2.012 2.129a32.447 32.447 0 011.672-2.027l.477-.53.29-.32.512-.613c.707-.811 1.236-1.799 1.709-2.847a10.976 10.976 0 00.308-7.161 19.834 19.834 0 00-.303-.932 14.084 14.084 0 00-1.246-2.228 1.717 1.717 0 00-.121-.167l-.075-.092-.15-.187-.306-.376-.038-.047-.02-.024-.399-.441-.023-.022-.195-.175-.4-.345c-.543-.458-1.103-.904-1.765-1.233l-.506-.336a6.51 6.51 0 00-1.18-.637 19.878 19.878 0 00-1.266-.504c-.353-.117-.598-.16-.598-.16l-.522-.049c-.332-.017-.808-.079-1.373-.042a17.55 17.55 0 00-1.925.242c-.702.193-1.381.382-2.151.713a14.15 14.15 0 00-1.865 1.077l-.282.198c-.112.079-.083.068-.132.106l-.656.583-.48.434-.032.035-.061.066-.113.122-.183.199-.16.173a9.71 9.71 0 00.437-.563l.041-.059.02-.028.001-.002.452-.409.003-.003.006-.007.011-.013.081-.1.142-.184.239-.338.124-.172c.072-.079.301-.257.475-.391.383-.291.855-.615 1.479-.958l.492-.255.446-.178c.315-.12.668-.243 1.063-.364 1.553-.409 3.979-.846 7.151.372-.365-.205-1.351-.687-2.806-.878-.73-.085-1.566-.178-2.479-.063a14.93 14.93 0 00-1.412.191c-.478.121-.97.264-1.465.431-.829.197-2.632 1.26-3.296 1.808l-.545.472-.638.572-.125.132-.252.263a49.144 49.144 0 01-2 1.99l-.887 1.657c.275-.705-5.091 4.579-1.601.502l2.92-3.235 1.072-1.188.252-.279.122-.135.061-.066.029-.033.008-.008.551-.499.016-.015.489-.443.217-.197.026-.023.084-.063.174-.125.339-.234c.443-.298.851-.537 1.189-.722.686-.373 1.079-.533 1.051-.515.031-.02-.421.135-1.099.453a15.31 15.31 0 00-1.13.587l-.896.545-.726.427-.583.525-.009.006-.017.013-.032.023-.06.044c-.038.028-.07.052-.098.071l-.085.063.221-.227.027-.028.608-.551.066-.056.15-.126.36-.303.102-.085.052-.044c.01-.01.032-.028.111-.084a15.78 15.78 0 012.641-1.531c.569-.234 1.073-.384 1.644-.552l.847-.221c.287-.047.577-.087.869-.122 2.34-.37 4.707.159 6.361.774.813.354 1.471.712 1.92.968.458.249.68.442.68.442l-.16-.104a3.551 3.551 0 00-.44-.247c-.374-.19-.882-.429-1.395-.642a8.024 8.024 0 00-1.44-.468l-.67-.154c.45.121.885.253 1.302.396.412.151.797.351 1.174.536.375.19.733.387 1.074.587.333.209.632.448.928.675.293.23.571.463.835.694l.195.173.095.086.024.021.012.011.516.572.017.02.128.154.47.572c.755 1.015 1.576 2.553 1.789 3.336.261.858.482 1.607.543 2.271.146 1.336.109 2.274-.035 3.005-.133.732-.235 1.26-.447 1.766-.194.509-.4 1.013-.686 1.679-.343.635-.747 1.486-1.51 2.514-.198.253-.417.521-.658.804l-.38.434-.204.224-.102.103-.861.883c-.645.676-1.438 1.539-2.434 2.647-2.168 3.1-4.949 5.982-10.22 11.025 3.627-3.835.055-.711 1.188-2.386-4.001 3.611-4.901 5.281-6.694 7.437-1.215.723-2.106 1.211 1.33-2.152-.09-.942-4.384 4.562-5.225 4.341-11.249 11.28-7.311 10.741-21.142 23.245l.279-.708c-8.095 8.627-13.174 13.196-20.748 21.107l-6.642 5.551c1.28-1.447 4.539-5.52 2.565-4.071 3.516-2.415 6.471-5.754 9.961-8.654.184-.469-1.221.729-1.876 1.207 1.933-1.923 3.147-2.644 5.599-5.286-.236.009-3.151 2.651-1.125.49l3.804-3.125c4.473-4.796 1.471-3.094 7.07-8.383-.71 1.315-2.339 3.82-4.374 6 2.553-2.422-3.134 3.499-.683 1.41 3.136-4.032 5.221-5.407 9.705-10.453-.497.622-.558.858-1.702 2.058l7.104-6.725c-1.973 1.449 5.423-5.999 4.391-5.746-7.53 7.207-5.13 5.277-13.747 13.454 2.288-2.466 4.957-5.927 6.028-7.728.089-.058.223-.167.487-.418.897-1.668-.514-.464-1.163-1.163-3.354 4.313-6.311 6.48-10.556 11.277-.48 1.219 3.094-2.152 5.246-4.495l-3.738 4.228.614-.954-10.233 9.986c1.896-1.936 2.333-2.8 3.171-3.961-1.318 1.29-2.708 2.485-4.189 3.751.642.063.708.494-.57 1.76-6.589 6.42-10.521 9.72-13.323 11.718l-.732.782c1.451-.729-3.97 5.268-5.617 7.652-.272-.473-3.575 3.128-5.641 4.813-.569 1.426 1.353.686 3.985-1.247 4.007-4.79 2.069-2.859 3.592-5.493l6.685-7.425-1.235 1.919c3.672-3.371 6.603-7.204 6.789-6.501-1.564 2.157-4.816 5.049-6.365 7.192l2.492-2.167c-3.673 4.546-2.527 1.686-7.198 6.966 2.208-1.453-.424.478-2.302 2.862 1.974-1.448 8.652-8.868 7.8-6.731-2.307 2.868-9.458 7.953-12.242 12.014l.095-.24c-5.134 4.967-6.542 7.109-8.202 9.23-2.356 1.941-5.03 5.201-7.337 7.553l-.13-.244-3.208 3.364c1.225-1.905 3.86-3.842 6.634-6.714l-.698.004c3.666-2.842 5.21-5.639 7.435-8.461-3.372 3.973-10.456 10.287-10.641 11.827l-2.622 1.922-.961 1.213c-1.956 1.43-.64-.711 2.564-4.072.658-.482.986-.724.886-.479 1.369-1.678 2.498-3.347 6.266-6.954l-1.784 2.151c4.615-4.565 8.655-8.873 9.886-10.786-6.772 6.483-13.319 12.969-19.526 19.208-1.052 2.62-2.789 5.237-2.996 6.901-4.04 4.31-9.608 10.079-13.502 13.438l.189-.477a65.464 65.464 0 00-4.712 4.808c-2.061 1.678.895-1.665-.512-.466l-5.736 6.225c.039-.699 5.07-5.732 7.437-8.146-.423.479-1.279 1.443-.942 1.195 2.916-2.644 7.532-8.384 9.225-9.122 1.271-1.438-2.399 3.104 2.211-1.457 3.25-2.89 3.821-4.318 3.999-4.782-.137-.237-5.074 4.563-3.61 2.648-2.366 2.413-3.077 3.606-6.313 6.482 2.346-2.392 5.184-5.987 6.735-6.958 4.335-5.032 2.786-5.237.529-3.077.801-.251-8.204 8.882-1.705 3.099-2.405 3.112-7.441 8.154-10.829 11.983l.093-.234-4.392 4.568c.533-.729 1.804-2.167 1.662-2.397l-5.704 6.706c3.156-3.829-2.398 1.932-4.137 3.373-.379.95-2.593 3.583-.104 1.421 2.821-2.406 1.367-1.677 3.722-4.075l-2.915 3.816-.333.245-1.656 2.396c-4.611 4.559 1.146-2.861-4.369 3.375l1.267-.262c-6.876 6.728-16.177 14.897-20.751 19.936 1.04-1.611 1.165-2.656-.931-1.105 2.159-1.986 6.306-6.169 9.23-9.188.661-.483-3.119 4.309-6.456 7.429 2.388-.741 7.625-8.619 8.839-8.165 8.519-7.936 5.333-6.94 12.807-13.435-.276-.469 1.803-2.167 1.842-2.862-2.676 1.459-9.315 9.356-14.06 13.676.417-.471 1.254-1.42 1.357-1.665-3.349 3.131-4.604 4.552-6.729 6.953l.329-.241c-3.591 4.318-2.726 2.169-5.216 4.332-.847.957-4.19 4.086-3.396 3.839l-4.568 3.86.619.213c-2.354 2.401-3.148 2.646-5.05 5.055l.272.472 6.033-5.773c-2.87 3.113-.477 1.19-3.687 4.556 1.633-2.04.932-1.441-.267-.332-.599.556-1.321 1.238-1.939 1.783-.309.272-.591.511-.818.682a3.192 3.192 0 01-.302.205 1.058 1.058 0 01-.28.145l-1.936 1.964-1.358 1.372c-.386.348-.688.481-.681.497l.555-.413.492-.541c-.209.163-.4.334-.592.473l-.584.313c-.372.196-.69.418-1.04.528l-.959.402c-.313.113-.632.186-.949.285-.631.226-1.323.286-2.147.376a23.847 23.847 0 01-1.36-.081c-.493-.07-1.022-.221-1.617-.359 2.74.948 5.376.792 7.759-.285 1.207-.49 2.229-1.593 3.411-2.644a78.995 78.995 0 001.781-1.682c.353-.388.719-.804 1.102-1.253l-.93 1.088c-.103.112-.132.167-.299.329l-.486.479-1.018.995-2.158 2.092c-.784.591-1.623 1.076-2.526 1.404-1.788.68-3.665.889-5.186.685-.744-.154-1.438-.235-1.98-.44-.542-.202-1.006-.334-1.309-.493-1.362-.541-2.386-1.664-3.423-2.567-.965-.888-2.195-2.007-2.496-2.407-1.003-1.117-1.961-2.237-3.13-3.449 2.359 2.21 2.242 1.527 2.645 1.471.202-.028.534.1 1.371.823l2.297 2.071 1.981 1.834c.392.299.842.536 1.299.834.5.209 1.021.466 1.602.645-.37.021-1.852-.582-2.312-1.017.474.509 1.417 1.089 2.692 1.403 1.256.385 2.861.404 4.396-.019.784-.168 1.51-.529 2.228-.862.659-.446 1.325-.836 1.846-1.461l2.813-2.915c-.534.229.002-.428-.115-.464.033-.155-.618.336-3.317 2.696.462-.347.446-.219.061.254-.098.115-.214.263-.359.411l-.54.411c-.205.144-.419.325-.676.471l-.858.412c-1.231.512-2.9.902-4.639.609-1.737-.286-3.436-1.047-4.666-2.419 0 0 .324.023.647.048.31.032.623.007.628-.005-.016.033-.459-.394-1.125-1.027l-2.393-2.279-2.403-2.473.483.429c-1.456-2.211-5.274-5.129-8.41-8.708-2.633-2.214-11.765-11.679-8.378-7.065-2.646-3.38-5.758-5.557-9.125-8.766l3.859 4.338c-5.265-4.426-3.599-3.302-8.144-6.512-.232-.553-.964-1.549-.008-.93-6.479-6.541-15.61-16.003-19.909-19.342-4.563-4.614-4.593-6.025-11.302-12.192-1.438-1.273.509 1.605-3.585-2.826-.244-.331 4.538 3.669-.255-1.031-3.832-2.93-7.691-8.19-12.48-12.197-2.159-2.484-6.25-6.452-5.054-5.97 3.597 3.759 8.876 8.89 9.841 9.512-.723-.292 2.407 2.825-.469.28 5.29 5.83 3.83 3.388 8.633 8.56.487.201-2.169-2.959-3.366-3.9.464-.51 10.07 9.599 6.221 4.581-5.288-5.372-7.886-5.938-11.992-11.07 2.148 1.555 4.793 4.702 7.657 6.542l-3.6-3.992-3.107-2.403.236.092c-6.258-7.15-6.704-5.699-12.946-11.453 3.137 3.813-1.649.042.758 2.863-4.074-3.949-6.954-6.959-6.494-7.474 7.902 7.106.942-.09 8.365 6.361-.964-1.313 2.365.938-1.715-3.25-5.006-4.31.987 1.799-3.819-2.686-.231-.318-.472-.647-.238-.556-2.39-1.883-2.402-2.584-5.268-4.89l.711.515c-2.892-3.484-3.823-3.152-6.245-6.219.736 1.459-2.14-1.545-4.067-3.021 2.645 2.918 3.631 4.943 9.148 10.403.949.376.707-.183 3.1 1.933l-3.602-3.533c.816.723 1.477 1.235 2.24 1.884l3.278 3.575c-4.549-4.14-2.862-1.842-5.006-3.391-3.851-4.101-3.359-3.202-5.766-5.795.671-.168-6.949-8.383-11.257-13.231l2.107 2.141c3.59 3.06-1.938-2.638-1.945-2.876l-2.634-2.213c.485.427 1.214.96.24-.133-3.359-3.203-3.584-2.596-6.938-5.792-.015-.477 3.105 1.941 1.19-.217-.5-.904-2.2-3.677-6.756-7.824-.396-.22-1.574-1.298-2.92-2.568.194.169.431.388.53.454l-2.638-3.143c2.857 2.068 4.794 5.167 7.666 7.246l.585-.165c1.928 1.925 4.706 4.379 6.103 5.387-2.874-3-3.59-3.52-6.952-6.727-.223-.697 2.266 1.44 2.625 1.748l-.704-.276c3.606 4.227 6.215 5.496 11.021 10.441.721.751.244.33.009.237 4.311 3.584 7.685 7.954 12.001 11.312l-1.449-1.053 13.708 11.938.187-.105c-.479-.654 1.432 1.267 2.4 2.354l-.007-.003 7.496 6.564a29.897 29.897 0 00-2.225-2.598c-.972-.629-5.521-5.459-5.267-4.427-1.932-2.401-5.76-5.555-7.204-7.294 2.649 3.149-2.386-1.652-3.109-1.945-.729-1.221-4.315-4.278-3.605-4.229-.486-.658 1.205 1.643 2.635 2.678 3.345 2.729-5.289-5.831-1.213-2.34-5.043-4.58-11.283-11.021-16.55-15.679l2.643 2.913c-2.158-2.255-7.453-7.402-7.683-7.952 1.678 1.601 3.589 3.521 5.753 5.552.474-.271-5.042-5.038-5.045-5.501l-6.708-5.474 2.647 2.688c-1.907-1.454-7.211-7.305-11.293-11.492 2.882 1.862 6.25 6.224 10.805 10.369 3.353 2.966-1.458-2.444 1.654.424-.656-.894-2.622-2.832-3.712-3.665l-1.087-1.272c3.132 2.204 9.008 8.288 13.389 11.87-.399-.3-.756-.552-.92-.608 2.885 3.245 6.005 6.351 9.117 9.216-1.434-1.727-2.159-2.253-3.117-3.103.002-.227 2.873 2.544 4.068 3.485-2.645-2.915-.245-.792-1.928-2.627 1.921 1.7 3.355 3.199 5.513 5.454.969 1.319-1.188-.705-1.184-.242 2.41 2.134 2.899 3.723 6.49 6.783-4.326-4.52 1.665.666 3.343 2.035l-.725-.757c1.672 1.133 2.873 2.313 3.596 3.528-1.921-1.7-3.596-3.528-3.355-2.739 1.208 1.184 2.412 2.364 3.848 3.636l-1.429-1.034 6 5.886c1.183.699 3.095 1.93 4.275 2.397 1.207 1.644 3.375 3.447 4.811 4.715l-.73-.528c2.415 2.828 8.42 8.488 9.126 8.766 1.682 2.064-14.6-11.877-1.163 1.163 5.034 5.031 3.816 2.453 6.925 5.089 0 0-.232-.092.008.238 2.153 2.252 2.634 2.213 4.554 3.914-1.217-1.424-3.126-3.343-3.841-3.86.948.377 4.562 4.612 6.474 6.075-2.63-1.75 4.089 4.425 2.164 2.951 4.097 4.664 9.128 8.999 11.753 10.975 2.42 3.524 5.286 5.139 9.854 10.219-.725-.758-2.153-2.021-3.131-3.117-3.1-2.399 4.815 5.182.263 1.27.96.851.25-.122-.733-.995-1.663-1.584-3.346-2.959-3.097-2.392l3.621 4.241-1.457-1.287 5.537 6.395c.233.092-.239-.556-.482-.886 6.731 7.107 14.882 14.781 20.887 20.9 1.063.075 4.9 3.701 9.16 7.844l3.237 3.157 1.609 1.562.619.591.369.335c.476.438.933.853 1.472.938.521.108 1.01-.027 1.329-.266-.33.349-.674.657-.863.938-.19.287-.219.574.115.775-.445.028-1.189.042-1.924-.409-.367-.219-.729-.533-1.129-.868a14.4 14.4 0 01-.604-.555 28.481 28.481 0 01-.906-.926c-.237-.554-3.117-3.793-.966-2.006-6.959-6.733.493 1.36-1.895-.293 1.869 1.821 3.9 3.743 4.768 4.469 1.006 1.059 2.467 1.371 3.59.875 1.166-.444 1.729-1.561 2.369-2.303l.115-.148c.03-.042.076-.098.157-.189l.418-.481.834-.954 1.685-1.889.237-.005 3.395-3.836c-3.02 2.889-3.434 2.183.57-1.43l-.436.491c2.407-1.938 6.65-6.733 10.08-10.09l1.976-2.624c3.436-3.361 4.185-2.905 5.65-3.648 5.369-5.284 7.95-8.854 11.439-12.932 1.974-1.447 10.015-9.363 6.106-4.817 4.572-5.036 2.194-5.476 11.215-12.935l-1.885 2.392c7.825-7.931 18.556-19.671 22.453-23.035-1.995 3.818 10.768-8.913 13.062-9.42-.595.186 2.298-2.842 2.62-3.382.753-.544 1.935-1.522 2.896-2.853-3.252 2.893 1.231-3.087-4.281 3.147 2.36-3.585 5.711-7.893 12.253-14.374l.274.471-5.265 5.039c.795-.246-1.877 2.385-2.837 3.6 9.793-9.375-.382 2.127 9.366-7.719.705-1.188.191-.475 2.643-3.117-1.186 1.21-1.144 1.682.791-.243l1.556-2.151c4.043-2.8-5.259 6.068-1.903 3.585-3.49 4.076-9.886 10.785-8.189 10.04 6.351-6.005 4.667-6.449 11.343-12.693l.891-.485c2.134-2.411 2.173-3.105 3.219-4.547.228.003.891-.488 2.384-1.915 3.357-4.316 5.81-6.956 8.826-11.018-9.027 9.812-8.417 7.689-17.79 17.761 1.369-1.679 8.101-8.636 8.006-9.572l.282.465c2.968-3.355 5.935-6.707 10.028-10.554l-2.214 2.633c5.003-5.522 9.314-8.182 12.846-12.955-1.5 1.434-2.68 2.635-3.528 3.597 2.543-2.875 5.979-6.236 8.985-9.116l5.476-6.707c.131.239 4.002-3.61 2.436-1.453 4.669-4.102 6.181-6.725 8.622-9.351 4.887-4.094-3.714 4.067-3.639 5.022 6.359-6.014 12.762-12.728 15.917-16.555-1.337 1.187-2.015 1.735-2.041 1.581.305-.07 2.768-2.593 4.161-3.979l.713-1.198.058-.05.014-.012.128.125v.001l.006.008.02.021a.49.49 0 00.069.053c.006.002-.019-.008-.005 0 .042.02-.021-.007.012.006a.436.436 0 01.146.073c.01.011.076.059.071.078a.112.112 0 00.009.044l.014.035c-.013.028.055-.005-.031.087.048-.044.059-.059.051-.057l.002-.015.01-.023c.001-.018.047-.008.032-.035-.036-.05.032-.048-.024-.098.021-.055-.125-.118-.125-.138-.03-.001-.047-.001-.049-.006 0 .012.001-.039.009.021a.475.475 0 00.145.278l.063.053c.011.005.079.062.018-.005l-.406-.496-.197-.25-.002-.002.327.362h-.003l-.002.001-.004.001h-.006c-.004-.003.003-.019.016-.05-.01-.001.021-.075.018-.133.036-.04.035.002.082-.039.038-.015.04.029.098.007l.01-.002.006-.001h.001l-.307-.34.003.003.011.013.088.099.175.199.352.401.037.045-.023-.013-.046-.031a.38.38 0 01-.139-.256.429.429 0 01-.011.396c-.01.029-.008.068-.055.078a.068.068 0 00-.022.047c.021-.008-.044.057-.104.115l-.168.167-1.259 1.264c-.781.793-1.434 1.482-1.88 2.02a110.169 110.169 0 012.59-2.666l.572-.562.275-.268c.032-.041.017-.039.032-.055.013-.025.059-.027.081-.045.004-.029.02-.047.05-.062.048-.007.032-.043.051-.064.008-.025.064-.039.067-.068-.013-.057.096-.111.074-.174a.312.312 0 01.053-.102.163.163 0 01-.002-.098c.019-.158.057.053.194.054l.052.006c.021.004-.044-.07-.062-.101l-.173-.249-.176-.251-.089-.126-.045-.063-.022-.032-.006-.008c-.059-.066.504.558.266.293h-.001l-.003-.002a.326.326 0 01-.086-.106c-.019-.053-.046-.101-.093-.115-.117-.187-.365-.231-.631-.272-.12-.034-.326.046-.383.038.021-.001.039-.015.049-.039a.113.113 0 00.01-.043l-.001-.027c.003-.014-.053.04-.077.057l-.383.312-.195.16-.099.081-.025.02-.006.005.271-.245-.012.011-.046.046a175.62 175.62 0 00-3.261 3.381c-.239.007 1.229-1.913-.701.012-4.379 4.557-.668 1.667-1.794 3.331 1.645-1.795 2.903-3.055 4.039-4.079a36.084 36.084 0 011.645-1.394l.813-.633.002-.001-.348.314.004-.002.007-.004.014-.009.027-.017.056-.034.11-.067.224-.135c.14-.079.324-.204.432-.246.047-.049-.194.246-.392.494-.052.065-.104.129-.151.19l-.07.087-.017.021-.008.01h-.001l.377-.34-.001.001-.002.002-.003.005-.026.041-.113.174c-.241.037-2.406 2.191-3.142 2.729l-.154.957c-.188-.7-3.98 2.417-6.53 5.299 3.065-2.422 2.308-1.698 3.56-1.94-3.34 4.298-4.779 3.839-8.553 8.626.179-.463 3.809-4.307.471-1.187-2.692 2.653-1.99 2.643-3.673 4.545 1.649-2.388.856-2.145 2.606-4.771 4.702-4.796 1.921-1.911 6.401-6.714l-4.242 3.617c3.964-4.084 2.504-3.349 2.693-3.822-7.247 6.496-4.617 5.74-9.135 10.064-1.878 2.385 4.194-4.088 1.125-.488-4.188 4.08-.701 1.184-5.181 5.985l.607-.947c-1.639 1.199-2.771 2.872-4.374 4.55-1.693 1.917 3.328-.76-4.069 6.688.261-.467.329-.666.286-.708l4.136-10.345a1449.573 1449.573 0 01-25.181 24.608c-2.658 1.444 5.715-6.716 4.908-6.457l4.097-3.848c.034.48-8.243 8.401-4.201 5.269 6.829-7.199 10.308-10.085 16.432-17.27-2.676 1.459-8.656 8.872-13.455 12.73 1.857-1.778 3.325-3.379 4.728-4.956l-13.294 12.783-.892 1.186c3.185-3.048 5.393-5.153 5.692-5.409-4.186 4.079-7.334 7.901-7.164 8.621l.751-.718-1.355 1.632c-.998.929-1.996 1.87-2.989 2.805zm-269.028-36.933c.294.208.542.356.75.44-.217-.086-.09.126-.75-.44zm319.097 1.511l8.388-8.14 4.15-4.021 1.026-.997c.156-.138.371-.392.569-.628.188-.245.419-.462.561-.738.677-1.051.98-2.29 1.012-3.515-.107 1.103-.389 2.169-.973 3.025-.246.455-.593.82-.938 1.167a3.931 3.931 0 01-.479.45l-.442.365-3.208 2.621c-1.91 1.539-3.313 2.612-3.891 2.915-.577.303-.329-.163 1.061-1.7.695-.769 1.676-1.806 2.982-3.148l2.208-2.248c.224-.209.376-.416.546-.626l.26-.318.192-.374.202-.38.124-.423c.038-.143.093-.285.123-.433l.043-.459c.063-.006-.119-1.29-.164-1.274.07.627.108 1.396-.189 2.167-.091.402-.347.759-.564 1.137l-.435.517c-.154.181-.38.382-.569.576a298.764 298.764 0 00-4.983 5.054 640.412 640.412 0 00-5.94 7.657 6684.75 6684.75 0 01-2.849 3.765c-.73.984-1.174 1.608-1.124 1.61 1.215-.724 2.359-2.406 4.197-4.093l-.896.489zm-5.392 2.445c-3.222 3.026-2.316 2.51-2.626 3.17l3.217-3.349c-.46.371-.726.514-.591.179zm-2.263 3.159c.355-.347.663-.638.844-.771l-.844.771zm-16.3 2.326l.31-.332-2.29 2.208c.328-.271.919-.819 1.98-1.876zm6.769-5.911l.421-1.062-2.146 2.071c.384-.091.758-.212 1.725-1.009zm21.436-19.323c.225-.417.661-1 1.187-1.652l.84-1.015.22-.261.11-.131.056-.065.002-.002a3.776 3.776 0 00-.11.1l.004-.004.007-.007.016-.015.031-.03.489-.474c.183-.197.279-.226.383-.296.108-.065.19-.154.312-.225.278-.098.523-.281.768-.336.241-.064.451-.157.615-.221.164-.043.28-.102.327-.176.17-.062-.009-.145-.403-.213l-.728.016c-.276.034-.572.135-.888.203-.157.069-.302.155-.457.229-.153.082-.311.125-.474.279l-.488.391-.124.099-.076.075-.229.224-1.89 1.849c.021.109-.174.425-.542.909 1.323-1.211 2.28-1.947 2.04-1.161-3.854 2.662-2.495 3.343-6.169 6.711-.808 1.435 4.229-3.607 5.171-4.801zM176.816 234.741c-.061-.138-.305-.583-.664-1.189l2.701 2.261c4.328 4.521 7.233 8.705 11.766 12.138 1.726 2.002 2.432 3.292 3.145 4.486-.895-.93-1.725-1.807-2.399-2.555-11.972-10.361-4.974-6.671-14.549-15.141zm50.089 51.656c-.484-.429-.72-.52-.72-.52 10.703 9.07 19.08 16.974 24.378 22.335-.709-1.357-5.24-6.39-7.376-8.793l2.381 1.643.966 1.547 3.828 3.157c-.729-1.225-3.601-3.994-5.296-6.07-.234-.093-6.702-5.7-8.617-7.161l4.569 5.079c-1.2-1.405-7.684-7.72-10.315-10.163-.235.136 3.853 4.793 4.805 4.942.247.795-4.798-4.244-1.904-.762-4.071-3.485-9.837-9.74-12.49-12.665l-.011-.934c-2.88-3.238-2.623-1.512-5.992-5.413 4.559 4.38-.25-1.261 3.34 2.26-.961-1.31.464-.511-3.132-4.039-3.576-2.354-3.372-4.137-6.714-6.401-1.683-2.063 2.383 1.648-1.221-2.118-4.547-3.907-4.533-3.433-5.239-3.25 3.828 4.077 5.019 3.863 8.143 7.203l-7.19-5.669c1.078 1.293 1.943 2.181 2.709 2.887-1.336-1.248-2.546-2.233-3.641-3.017a3948.5 3948.5 0 01-1.71-1.259c3.64 3.648 6.865 6.896 7.248 7.656l-.718-.287c1.092 1.488 3.35 3.436 4.478 4.247 3.286 3.24 6.846 6.198 7.279 7.19l-1.436-1.041c4.075 3.952 4.549 4.372 9.598 9.416zm134.581-75.409c-3.22 1.641-6.598 3.624-17.804 15.106l.838-.947c-6.213 5.221-10.491 11.802-17.996 18.207 3.077-3.673 2.922-3.464 5.968-7.871l-3.397 3.844c.573-1.433-2.816 2.401-5.494 5.038l1.834-2.856c1.742-1.448 5.929-5.529 5.691-5.524-.849.962 6.104-4.813 9.412-8.418-.703.01-7.861 7.449-5.168 3.624-2.636 3.11-3.337 3.121-6.219 6.245 2.643-3.117.24-1.185 2.132-3.581l-4.806 5.042c-.244.013 6.914-7.427 2.454-3.819-1.791 2.154-7.286 7.194-7.008 7.662l-.236.006c-3.771 3.61-1.096 2.151-5.84 6.47.134.241 1.128-.494 2.713-2.156 1.289-1.455 1.243-1.922 4.017-4.8 1.56-.975-3.445 3.373-.989 1.904 1.22-.729 7.249-7.674 5.736-5.052l-3.764 3.604c.279.468-2.41 3.114-2.034 3.34-2.115 2.39-4.661 4.095-6.637 6.721-.714 1.196 1.402-.022-2.6 3.588-3.526 2.421-12.183 11.293-15.386 14.655l-2.635 3.11c.474-.015 5.458-5.52 3.911-3.377l-4.391 4.569.202-.489c-1.516 1.452-2.88 3.125-4.152 4.562 1.126-1.664 4.463-4.785 3.433-4.533-2.179 2.026-2.645 2.203-4.505 4.213.395-.45.721-.852.612-.853-4.426 4.089-3.676 4.546-4.617 5.74-3.774 4.786 4.784-3.845 4.638-2.897l-12.283 12.711c.94-1.193 1.89-2.394 1.327-2.15-3.244 2.886-.371-.232-4.656 4.09.839.226-5.087 5.751-7.82 9.098-1.638 1.203-1.974 1.451 1.126-1.661-.686-.005-4.775 4.35-6.216 5.729a52.572 52.572 0 01-1.438 1.657c-.299.272-.582.588-.909.802-.337.195-.634.439-.948.534.829-.153 1.076-.22.717.142-.095.078-.218.206-.406.302-.19.09-.428.193-.713.31-.284.121-.639.142-1.035.222a5.903 5.903 0 01-1.35-.053l-.24.036c.797.263 1.717.289 2.637.141a6.001 6.001 0 002.596-1.219c.753-.657 1.5-1.373 2.269-2.075l2.083-1.964c2.675-2.551 5.087-4.952 6.294-6.513l-.61.954c5.407-4.811 10.497-11.738 13.505-13.442.041.476 1.086-.967 1.37-.505l3.47-4.053-.612.951 6.314-6.483-.1.239 6.489-8.166c-.155-.17-.403-.022.491-1.156a31.011 31.011 0 012.405-2.548c.005-.007.005-.007.003-.008l.002.002c1.618-1.522 2.897-2.335 4.926-4.173l-5.91 5.99c-.208.761.585.541 3.693-2.181-1.182 1.202-1.466 1.917.042.473.09-.233 3.723-4.075 2.079-2.871 5.552-5.754 15.427-14.179 23.484-23.286-5.851 6.481 5.312-4.571-1.42 2.387 5.22-4.335 3.676-4.546 8.615-9.347.574-.256-2.672 2.631-3.479 4.063 8.274-7.92 12.949-14.376 20.917-22.076l.68.01c1.438-1.532 3.035-3.227 4.698-4.99zm15.067-15.926l4.471-4.709-.461.44 4.253-4.808c-2.918 2.649-5.131 4.104-1.412.032-.185.471 1.129-.494-.143.944 2.817-2.404 8.745-7.931 6.731-6.958-4.524 5.508-1.832.506-5.409 4.813 1.776-2.455 4.024-4.397 5.87-6.547-1.795 2.364 1.128.159 4.388-2.83 1.275-1.444 5.035-5.043 7.157-7.44-1.123.487.662-1.663-3.1 1.939a63.293 63.293 0 015.796-5.769c-.874.983-2.458 2.646-2.23 2.649 1.804-1.218 3.561-3.001 4.662-3.852l2.278-2.38a4.7 4.7 0 01-.676.458l2.306-2.869c-3.296 3.596-1.74 1.446-1.882 1.215.28.466 2.267-2.17 3.435-3.362l-2.956 2.169c1.041-1.436 4.657-4.088 3.62-3.832-5.593 5.281-7.616 7.438-12.415 12.472l2.302-1.69c-5.331 5.764-3.946 2.897-10.156 9.136-2.308 2.867-9.342 9.38-8.91 10.068.61-.951-4.374 3.378-6.253 5.764-1.847 2.869-8.907 10.068-6.514 8.142 1.933-1.92 4.244-4.794 6.126-6.009l-3.631 3.843 2.731-2.173c-1.367 1.167-.971 1.317.022 1.144zm33.922-56.691l-.151.137.162-.159-.011.022z"/><path d="M120.34 180.587c-1.202-.947-3.838-3.625-3.592-2.831.238-.366 4.794 4.701 3.592 2.831zm-2.882-3.472c-.259-.115-.244.13-1.447-1.052l3.359 3.206-1.912-2.154zm-1.272-5.39c-1.917-1.468-3.117-2.414-5.754-5.091-.263-1.733 4.555 4.145 6.446 4.663-4.801-4.939-6.938-5.792-11.007-9.736 1.679 2.292 9.611 10.576 10.315 10.164zm3.093 1.235l-2.875-2.543.224.31 2.876 2.545zm52.276 65.047c.014.474 1.928 1.936 2.889 2.785-.722-.751-1.691-1.842-2.889-2.785zm-2.773-33.416L147.9 184.152l20.882 20.439zm72.833 100.473c-5.764-5.331-8.625-7.399-14.378-12.951 6.97 7.896 10.54 9.095 16.306 15.809l-1.928-2.858zm-3.789-.124c-.487-1.353 4.787 3.773 4.299 2.65-3.844-3.633-2.153-1.329-5.509-4.759l1.21 2.109zm-17.987-32.291l1.907 1.458-1.436-1.272zm53.086 32.772l-.515.711 2.918-2.645zm-1.028 1.423l.514-.713-.514.713zm-48.969-32.96l-2.407-2.593-1.436-1.038zm19.746 24.387l-2.375-2.099c.471.418 3.352 3.656 2.375 2.099zm47.423-9.654l2.556-2.887-.322.236-2.547 2.878zm-31.743 18.242c-.532.199.047-.425.491-.904l.472-.501a3.42 3.42 0 00.314-.365c.034-.059-.014-.042-.18.079l-.34.264-.244.197c-.09.073-.111.078-.178.126-1.319 1.422-.689 1.14-.335 1.104zm34.406-29.896c.367-.366.742-.765 1.077-1.175l-1.077 1.175zm0 0c-1.186 1.186-2.497 2.243-3.214 3.152 1.628-1.327 2.11-1.922 3.214-3.152zm13.499-13.655l-1.098 1.051c.934-1.262.438-.717-.411.396-1.127 1.149-.958 1.19-1.021 1.398l-.571.829.813-1.054c1.768-1.761 2.827-2.854 2.288-2.62zm56.041-44.831c-4.093 3.845-5.179 4.812-5.222 4.337-3.85 3.685-2.82 3.545-4.989 5.92 4.213-4.312 5.203-5.064 10.211-10.257zm-10.211 10.258l-1.468 1.508a36.406 36.406 0 001.468-1.508zm-64.52 47.62l2.071-2.861-.851.96zm80.75-63.638c-.752.72-1.92 1.911-2.588 2.402.047.471 3.338-3.12 2.588-2.402zm-20.368 10.244c-.561.245-3.005 2.878-4.1 3.852 1.516-1.45 3.201-2.182 4.1-3.852zm30.688-22.694c-.752.719-2.058 1.677-1.781.973-.943 1.196-1.934 3.099 1.781-.973zm-23.389 15.488l-.654.479-2.55 2.881zm-13.499 5.874c-2.746 3.362 5.589-4.102.589 1.419 7.108-6.463-.957.084 4.099-4.872-3.035 2.828-4.862 3.875-4.688 3.453zm4.688-3.452c.442-.41.913-.862 1.415-1.362l-1.415 1.362zm44.937-41.038c-.411.476-.68.814-.923 1.13.325-.374.626-.739.923-1.13zm-29.205 24.797l-4.115 5.041c2.75-3.366 10.461-11.041 9.521-11.021-2.585 2.397-5.46 5.517-6.492 6.947l1.086-.967zm60.899-44.196l-1.796 2.16 2.524-2.416c-.776.638.164-.98-.728.256zm1.215-.724l-.487.468a5.26 5.26 0 00.487-.468zm-41.344 29.005c-1.512 1.446-2.683 2.642-3.949 4.073.646-.472 4.412-4.076 3.949-4.073zm53.387-42.88l-3.185 3.344 3.527-3.596zm-14.86-18.906l-.65.476-2.541 2.872.658-.486zm1.891 15.317c-2.263 2.164-3.577 4.306-2.911 3.814l4.272-4.31c-1.452.729-1.18 1.201-3.759 3.597l2.398-3.101zm-114.286 98.431c.717-1.2 5.551-5.754 6.026-5.77-.531.73-2.98 3.371-1.235 1.918l3.119-4.308c5.311-4.57-2.974 4.535-5.204 7.185 5.109-4.956 6.211-6.838 11.566-12.188a37.326 37.326 0 01-3.74 3.082c-.6-.236 4.574-5.039 8.106-8.638-2.452 2.088-1.292.622.198-1.195.284-.311.458-.533.571-.701l.503-.62-.428.428c-.017-.077-.167-.039-.553.192-2.871 3.113-5.508 5.052-7.439 6.973 2.582-1.224-6.402 6.717-8.615 9.348l-2.729 2.863-1.045 1.047c-.285.136-.081-.255 1.38-1.984-1.197 1.465-5.684 5.857-5.056 5.666l-10.121 10.14c-.343.288-.692.569-.975.753-.309.394-.332.488-.251.477-12.385 12.412-24.769 24.824-37.153 37.208l-.178-.146c.057.088.115.191.178.307.168-.03.4-.069.691-.252-.109.561.027.465.297.229l.098-.085c.045-.039.017-.006.228-.21.313-.298.611-.576.862-.795.502-.437.813-.635.673-.281-.34.417-.736.866-1.162 1.323-.287.303-.246.271-.32.353l-.173.177c-.238.227-.487.399-.664.473-.021.235.099.319.263.369.159.055.365.072.405.29.266-.198.505-.41.708-.617.052-.056.771-.81 1.165-1.26.892-1.004 1.592-1.901 2.284-2.798 1.385-1.794 2.739-3.586 5.539-6.229.043.474-1.414 2.382 2.113-1.215l-.85.961c5.415-5.993 5.028-3.86 7.911-8.159l.278.467c2.307-2.868 7.339-7.904 10.124-10.793l-.098.241c7.532-8.385 4.378-4.558 13.136-13.673l-3.678 4.548c3.262-2.903 3.484-4.071 5.746-6.235-.087.23.699-.01-1.323 2.148l10.18-11.507c2.309-2.872-.796.249-1.358.493zm14.273-13.163a52.817 52.817 0 002.01-1.982c-.749.737-1.393 1.373-2.01 1.982zm-67.844 64.577l.32.313a.865.865 0 00-.32-.313zm82.572-80.934c-2.073 1.688 1.138-1.677 1.322-2.148l-6.728 6.741c.174.113-.331.94-.064.936l5.47-5.529z"/><path d="M330.449 214.734c-.128.328-.752 1.13-1.465 2.013l3.685-3.692c-.131-.085-.641.231-2.22 1.679zm8.378 6.953l-1.178 1.205-1.694 1.914zM319.551 239.7c1.642-1.206 4.178-4.073 5.025-5.031-3.105 3.119-1.839 1.688-5.025 5.031zm6.181-1.514l-2.878 3.124.323-.237zm-93.754 30.622l-1.491-1.442a45.34 45.34 0 001.491 1.442zm23.431 22.72c-.718-1.032-.569-1.061-.313-.959.272.118.709.423.905.392.136-.286.156-.498.062-.671-.021.033-.042.067-.062.088a4.147 4.147 0 01-.598-.27l.135-.152-.374-.327-2.149-2.103c.729 1.221 1.446 1.969.975 2.015-6.241-6.442-1.693-2.306-6.02-7.284l-7.136-7.042.651.496c-.603-.591-.899-.822-1.146-.985l-24.051-23.729c-4.551-4.141 1.939 2.869-1.647.043 5.039 5.036 12.25 12.797 13.193 12.709-.241-.098-.716-.289.244.793l3.338 2.489-2.643-2.913c3.353 2.507 12.719 12.062 14.167 14.035-5.524-5.236-3.333-2.027-10.552-9.799.206.467 1.348 2.069-.411.453 4.466 4.316 8.607 8.5 12.825 12.688a563.202 563.202 0 006.434 6.301l1.661 1.588.842.797.41.385.145.118c.384.312.761.6 1.115.844zm-85.663-85.167l.116.023c-.184-.134-.254-.166-.116-.023zm2.883 3.011l4.786 3.775-6.714-6.633-.839-.13c.679.5 3.199 2.66 3.967 3.706l-1.2-.718zm10.061 8.44c-3.597-3.296-3.827-2.692-2.137-.622-3.359-2.971-1.222-2.118-3.841-3.857-.23.373 3.848 4.096 4.799 4.938l1.179-.459zm25.21 25.649l-1.142-.797 2.341 2.434zm-1.142-.797l-2.323-2.417c.035.292.072.58.371 1.054l1.952 1.363zm-8.423-8.756a215.453 215.453 0 00-3.398-3.53l3.398 3.53zm2.604 2.817l-.026-.135-2.578-2.682 2.604 2.817z"/><path d="M204.434 240.248c-.093-.677-.237-1.435-3.745-4.78l.224 1.123 3.521 3.657zm99.032 19.324l-2.546 2.876.333-.242 2.542-2.874zm-15.906 15.372a54.538 54.538 0 00-1.479 1.8c.673-.737 1.186-1.348 1.479-1.8z"/><path d="M277.93 288.566c-3.482 2.894 4.01-4.787-2.025.986-.793.247 1.621-2.874 4.537-5.518.037.479-2.544 2.874-.572 1.428 1.549-2.145 2.454-2.644 1.423-2.388 2.863-3.349 2.934-3.97 4.789-6.331-3.584 3.926-11.866 11.411-16.133 16.674-2.16 3.094.069 2.138.733 2.822.554-.236 7.437-6.971 7.248-7.673zm5.689-4.344c1.508-1.442 1.933-1.921 2.781-2.882-.474.014-1.599 1.679-2.781 2.882zm-40.376 4.712c-.377-.186-3.166-2.736-2.757-1.996l4.167 3.926c-.933-.966-1.151-1.418-1.41-1.93zm3.237 3.654l-1.827-1.724c.436.452.998.988 1.827 1.724zm-3.369-3.905l.133.251c.077.037.087.006-.133-.251zm-54.429-64.763c.242-.128-1.672-1.821-2.632-2.671.721.751 1.693 1.845 2.632 2.671zm-68.616-67.161l-1.446-1.74c.475.651.72.983 1.446 1.74zm-29.605-19.5c-.083-.01-.23-.098-.417-.228.182.135.323.215.417.228zm-.417-.228c-1.243-.935-4.364-4.535-5.807-5.509l.225.082-1.194-1.055-.438-.387c-.067-.058-.143-.131-.196-.169l-.121-.07-.236-.153c.218.112 1.039.955 1.737 1.643l2.301 2.26c1.547 1.497 3.007 2.859 3.729 3.358z"/></g><g fill="#FFFFF"><path d="M90.354 224.953c-1.673-1.595-2.879-3.24-2.166-2.724-3.595-3.063-3.363-3.437-4.311-3.352-2.39-1.884-4.318-4.513-1.679-2.292l-6.476-5.845 3.603 3.764c-.716-.288-2.155-1.791-3.624-3.306l-.551-.566-.137-.14-.068-.07-.278-.305-.243-.3-.24-.293-.119-.144c-.037-.042-.123-.182-.179-.268a14.952 14.952 0 01-.684-1.192c-.209-.398-.269-.689-.396-1.016-.099-.316-.229-.608-.278-.891-.118-.562-.219-1.037-.327-1.382l.052.68c.034.435.097 1.051.342 1.762.116.362.2.717.47 1.203.119.229.248.463.387.696l.216.349c.073.114.162.251.192.278l.543.656.035.042.268.296.078.077.156.154.314.311a9006.66 9006.66 0 003.355 3.313l-.476-.191c1.672 1.365 4.557 4.378 5.525 5.467-.233-.092-.244.126-1.433-1.037 8.019 8.084 2.919 1.419 9.742 7.957a27.827 27.827 0 01-1.613-1.691zm5.789 7.89l3.347 2.271 4.573 4.85c.239-.132 3.821 3.15 1.661.663-.484-.425-1.437-1.268-2.146-2.01.927.125 6.466 6.065 5.487 4.275-3.833-3.62-4.316-4.28-6.936-6.248-3.379-3.453-5.774-6.033-7.223-7.774-1.075-.953-1.464-.85-2.801-2.089l.891.859-.464.742c1.202.948 2.157 2.023 3.362 3.203l-6.22-4.811c1.213 2.343 6.964 7.431 8.895 9.831-2.177-3.195 2.391 1.885-2.426-3.762zm-4.037-6.064l-.137-.134.137.134zm275.907 37.544c-1.162 1.184-1.365 1.672-1.463 1.913l13.191-13.214c-.571.255-4.57 3.862-2.124 1.226-1.309.958-4.61 4.56-4.897 5.274l.716-1.199c-2.732 3.352-5.419 4.821-3.618 2.655l-.253.26-7.234 9.617c3.162-3.024 1.972-2.793 5.682-6.532zm-273.964-51.15c1.766 1.655 2.034 1.809 1.898 1.556a35.443 35.443 0 00-1.898-1.556zm266.592 59.93l-2.267 3.012c.956-1.157 1.751-2.219 2.267-3.012zm12.613-23.953c-.015-.025-.004-.071-.1-.028l-.995 1.375.03-.03 1.065-1.317zm-71.12 85.262l-.84.892c.313-.318.588-.614.84-.892zm104.756-123.16l-5.512 6.229c.613-.952-2.168 1.931-1.129.496-.421.474-2.45 2.639-1.791 2.154l1.187-1.208c-2.602 3.59-.536 1.905-5.292 7.414 3.479-2.893 4.608-4.559 6.07-6.471l1.468-1.604 4.189-5.572.81-1.438zM178.653 292.16l.103.025c-.073-.045-.096-.043-.103-.025zm.518.124l-.415-.099c.394.237 1.678 1.369.415.099zm182.119-20.47c.012.172-.215.622-.649 1.289l1.689-2.248-1.04.959z"/><path d="M364.69 266.254l4.875-5.016 1.566-2.079c-1.796 1.989-3.942 4.268-6.441 7.095zm-54.454 60.637c-10.167 10.319 1.934-3.098-2.912 1.468-2.776 2.913-3.503 4.192-5.189 6.053 7.888-8.36-.191 2.011 7.856-6.329-.666 1.665-5.364 6.454-8.279 9.099-3.629 2.665 2.396-3.103 2.637-4.288-3.209 3.367-2.542 2.876-3.669 4.539-5.274 5.051-10.09 11.273-13.84 13.688-3.631 3.844-3.154 3.828-5.05 6.23.088.943 5.829-5.287 7.619-6.266-.33.243-.977.716-.887.481l3.339-3.123c-3.246 2.888-.089-.94 1.51-2.62 1.182-1.203 3.528-3.596 3.345-3.128l-1.694 1.916c2.487-2.161 4.751-5.503 7.484-7.677.244-.013-.63.97-.699 1.183 2.397-3.102 5.07-5.732 8.891-10.052l-1.848 2.87c2.689-3.821 10.223-11.033 15.63-15.843-.653.479-1.734 1.44-1.221.729 2.879-3.123 5.496-5.039 4.376-3.38 2.507-3.355 11.526-10.813 14.971-15.359l15.77-20.968a47.491 47.491 0 01-2.042 2.324c-2.119 1.221-2.964 2.175-.461-1.174-2.636 3.109-1.178 2.372-5.475 6.707 1.467-1.919 1.38-2.861-2.808 1.22-9.888 10.784-15.461 18.91-24.462 29.216-.702.01-8.185 7.686-11.949 11.288 1.035-1.777 3.663-4.616 6.425-7.529l-7.169 7.069-.199 1.656z"/><path d="M333.073 301.729c-.29.228-.574.478-.865.735.175-.117.436-.333.865-.735zm-14.595 15.585c.022-.049 0-.047-.002-.073l-.873.926.875-.853zm39.609-43.859c.515-.712.941-1.194 1.455-1.906l-1.218 1.398c-.388.48-.547.734-.237.508zm2.676-1.459l-.186.47.713-.651c-.006-.149-.146-.137-.527.181zm-92.797 90.91l-.906 1.057c.585-.598.809-.883.906-1.057z"/><path d="M298.238 337.715c3.529-3.596-.09-.942 4.947-5.984l-1.511 1.448c3.395-3.837 9.851-10.09 14.13-14.404-.279.69 2.854-2.355 2.672-1.533 2.861-3.012 5.699-5.991 6.882-7.834 1.928-1.711 4.401-4.766 6.851-6.942-1.17.783 2.64-3.946-2.753 1.919.428-.48.099-.239.521-.716-3.896 3.357-4.893 5.269-8.011 8.398-2.058 1.678 2.747-3.362.908-1.676-3.724 4.078-12.47 12.011-11.494 12.47-2.788 2.89-3.339 3.123-4.316 3.839-3.727 5.255-16.993 16.337-15.976 17.273 1.602-1.679 4.293-4.329 6.489-6.944l.661.686zm53.918-58.228l-.703.684.703-.684zm47.784-42.122l-.852 2.128c-8.329 8.635-11.575 11.522-18.967 18.965-.654.479.19-.477.618-.961-5.141 5.288-13.076 12.956-16.578 17.045-1.664 1.654-6.222 5.807-4.762 3.971-.751.863-1.619 1.841-2.568 2.749-.475.017 2.013-2.144 1.878-2.385-.751.72-1.083.963-1.18 1.204 1.041-1.436-2.063.506 3.727-5.255 2.772-1.7-3.944 4.068-2.031 3.34 1.919-1.912 1.468-1.918 1.56-2.154 2.454-2.428 2.539-2.216 2.544-1.95.752-1.119 4.078-3.934 5.091-5.505 4.702-4.793.187.703 3.28-2.404l1.188-2.387 5.269-5.042c7.253-7.674-2.103.031 6.089-8.838-.809 1.434 3.139-1.462 7.233-5.307-2.353 2.397-6.353 7.179-9.598 10.067 4.792-3.854-5.894 6.007-3.113 4.301 1.883-2.391 5.41-5.988 8.326-8.628l-.855.966c3.019-2.891 4.628-5.754 8.944-9.592 2.007-2.045 1.797-1.497 1.58-1 1.624-1.805 3.039-3.454 3.177-3.328zm-4.289 4.54l-2.77 2.651c.742-.544 1.749-1.558 2.77-2.651zM134.13 270.673l-.774-.872c.152.208.451.532.774.872zm247.805-3.606l-1.59 1.55a52.59 52.59 0 001.59-1.55zm-33.256 37.215l-2.153 2.434a30.908 30.908 0 002.153-2.434zm-195.87-14.848l.073.08.394.33-.467-.41zm123.797 84.117c-.399.299-.837.646-1.409 1.146.124-.005.643-.44 1.409-1.146zm72.469-69.717l-.15.128-.246.32.396-.448zm50.129-50.54l.945-1.065c-.462.486-.73.798-.945 1.065zm-3.912.514c.346-.377.673-.741.916-1.036l-.916 1.036zm27.776-56.319l-2.027 2.2c1.029-1.049 1.615-1.702 2.027-2.2zm-21.79 51.117c.096-.15.191-.3.246-.409-.274.311-.377.485-.246.409zm-278.792 6.849l.13.126.124-.017-.254-.109zm-6.013-4.266l-1.906-1.807a37.882 37.882 0 001.906 1.807zM238.25 374.477c-.473-.646-1.682-2.063-.971-1.549-1.196-.946-1.428-.571.971 1.549zM136.54 262.008c-.417-.256-.898-.612-1.38-.973.87.695 1.628 1.309 1.38.973zm-1.38-.973l-1.281-1.01c.442.364.874.705 1.281 1.01zM255.861 381.05c.113.093.295.12.544.115-.082-.139-.273-.109-.544-.115zM113.162 247.785c-.476-.191-8.86-7.955-2.142-1.09-.707.183-4.563-4.151-6.484-5.852 1.211 1.419-.939-.368-.699.19.952.844 2.147 1.784 3.6 3.3.479.886-1.911-1.229-3.594-3.063 1.932 2.402-3.102-2.397-.215.85 6.712 6.399 11.507 10.871 16.767 14.831-3.844-3.629-8.157-7.677-11.043-10.921l1.673.904c3.126 3.803 5.517 5.688 8.888 9.131l-7.449-7.858c-3.265-3.906-.793-1.581 2.103 1.176-.69-.701-1.296-1.353-1.405-1.598zm8.533 1.782l-.117-.14c-.126-.098-.274-.228-.362-.283l.479.423zm309.547-44.683l-.512.803c.484-.615.607-.83.512-.803zm-306.845 51.112l-.005-.005c.056.047.068.06.005.005zm301.787-46.379c.014-.033.025-.067.055-.12-.048.07-.037.082-.055.12zm3.921 12.667c.049-.013.074-.005.163-.058.328-.371.14-.219-.163.058zm-3.898-12.618c-.012-.012-.034-.013-.023-.049 0 .025-.016.066.023.049zm-78.129 80.954s.317-.186.776-.518c.118-.189-.076-.077-.776.518zm16.271-15.133l.329-.244-.329.244zM240.231 379.924a63.283 63.283 0 001.873 1.831 42.693 42.693 0 00-1.873-1.831zm186.008-170.427c.123-.205.314-.48.647-.917-.369.479-.551.746-.647.917zM326.082 316.502l.44-.524-.306.268-.134.256zm-8.476 7.911c.236-.323.318-.497.437-.693-2.765 3.084-8.312 8.283-8.538 9.328.982-1.002 6.367-5.906 5.73-4.79 1.937-2.142 5.236-4.867 6.267-6.032-3.57 3.122-.707.016 1.415-2.382 2.174-1.935-.058.716 1.788-.978l4.708-4.8-4.194 4.088.864-1.652-.385.46c-6.825 7.19-1.172.019-8.092 7.451zm.436-.694c.413-.464.768-.878 1.025-1.22-.654.669-.87.965-1.025 1.22zm-29.275 27.977l-1.178 1.303 1.178-1.303zm85.943-95.987c.238-.007 4.561-3.851 4.185-4.08l-3.754 3.563-.431.517zm-164.607 86.374c.445.463.898.923 1.359 1.374l.313.219c-.234-.323-1.189-1.167-1.672-1.593zm104.012-12.422c.702-.794.988-1.176 1.12-1.403-.461.508-.87.995-1.12 1.403zm-103.549 11.445c-.493-.665-1.214-1.65-1.22-1.888-1.183-1.188-2.173-1.86-3.437-3.011 1.406 1.318 2.951 2.924 4.657 4.899zm-4.761-4.99l.104.092-.104-.092z"/><path d="M372.153 258.01l-1.021 1.149.483-.646-2.899 2.717c-.319.358-.668.743-1.108 1.205a2.07 2.07 0 00.334-.485l-.936.864c-1.923 2.55-7.26 8.344-8.681 10.134-1.99 2.258-4.514 4.934-6.169 6.54 1.518-1.505 3.461-3.574 2.686-3.146-3.249 2.889-5.26 3.86-10.109 9.604l3.099-3.113-6.312 7.656c-2.725 2.168 3.15-3.821 3.878-5.033-5.101 5.764-10.503 9.396-12.438 12.495-.7.01-1.871.029-5.401 3.627 2.964-2.176-1.884 2.39.646.703-1.033 1.429-4.1 3.852-4.046 4.314l.19-.477c-6.633 5.539-7.769 8.389-10.09 11.273-7.146 7.428-10.716 10.551-16.602 16.552-.464.002-2.719.983-5.078 3.393-.796 1.421-6.029 6.944-6.177 7.895 4.43-4.096 3.151-3.824 5.609-6.47 2.544-1.704.607.224 3.76-2.427-2.505 2.178-10.36 10.799-13.319 12.969l.851-.96c-4.333 3.854-6.107 3.644-12.326 11.063l-3.009 3.5c.117-.197.088-.262.136-.381-2.685 2.642-3.776 3.485-4.889 4.448-.279.242-.553.485-.866.778-.335.315-.698.671-1.121 1.1-.848.862-1.92 2.013-3.545 3.817.502-.557.171-.313.673-.869a48.113 48.113 0 00-2.354 2.229c-1.432-1.42-2.86-2.693-4.277-3.94l-2.083-1.832-1.715-1.536c-1.212-1.881.696.038 1.896.753-5.768-6.025-12.705-11.815-16.774-15.07l-3.605-3.997c2.392 2.116 5.5 4.519 5.014 3.629-2.157-2.023-1.911-1.461-4.803-4.481.718.291 2.158 1.332 3.817 2.453-5.756-6.472-2.125-.609-5.748-5.544-1.917-1.925-3.345-2.729-3.813-2.681l-3.142-3.817c-.716-.058-5.031-4.336-7.896-7.102-.485-.202 1.916 2.617 3.11 3.558-.469.048-3.585-2.826-5.507-4.758-.016-1.395-12.713-12.513-9.623-11.048-8.878-8.43-21.104-20.517-27.104-25.939-1.693-2.074-5.521-5.923-2.897-3.945-6.963-6.969-11.264-9.854-17.989-16.956-.486-.658 3.132 3.119 3.116 2.644-4.795-4.243-7.93-8.515-15.126-15.343 1.192 1.168 1.678 1.369 1.914 1.462.009.236-3.11-2.636-5.035-4.339-.96-1.079 1.44 1.274.957.615-13.21-13.88-24.468-23.262-37.909-36.765 3.838 3.856 5.75 4.854 5.978 4.708l-3.761-3.777c-1.681-1.224-4.51-4.055-7.047-6.25-.205-.376-1.263-1.62.019-.553-3.491-3.954-6.607-6.653-9.961-9.533l-2.569-2.217-.328-.283-.263-.169c-.171-.116-.33-.25-.535-.307a3.298 3.298 0 00-1.202-.312c-.42-.03-.855.01-1.268.141-.193.079-.451.125-.55.223-.068.04-.14.072-.217.099l-.061.021-.101.085-.203.17-.412.343-.052.043-.007.005c.265-.239.072-.063.13-.116l-.006.009-.013.018-.052.071-.107.138-.23.27a5.05 5.05 0 01-.162.32c-.156.226-.159.389-.246.554-.052.039-.074.254-.095.457l-.071.596.008-.674c.005-.091-.006-.26.013-.32.019-.062.035-.128.048-.203a2.11 2.11 0 00.027-.249l.132-.332c.064-.253.222-.479.387-.731l.06-.098.03-.05.015-.025.004-.006.002-.003-.104.093.015-.014.235-.228.485-.466c.39-.277 1.11-.667 1.874-.756a4.437 4.437 0 012.247.414c.328.211.617.369.947.647l.906.767 1.87 1.582-2.413-3.054 5.277 4.438c-2.688-3.14-5.627-5.129-6.004-5.742.245.066.515.257.806.476l.446.337.367.328c.479.424.899.766 1.016.695-.683-.734-1.118-1.258-1.784-1.753-.285-.254-.595-.399-.883-.532-.287-.133-.545-.266-.827-.31l-.806-.169-.848-.02c-.294-.027-.605.05-.946.096-.346.028-.704.146-1.104.286 1.007-.487 2.367-.67 3.746-.272.68.196 1.385.509 1.99.999.149.113.332.242.455.35l.363.321.736.658a312.624 312.624 0 016.217 5.769l11.426 10.958c.971.861-.954-.614-1.188-.705 2.399 2.352 3.605 3.997 6.717 6.865 2.155 1.559-1.198-1.636-2.64-3.141.462-.056 1.188.701 2.868 2.303.011.702 8.888 9.132 10.581 11.669 8.878 8.661-.508-2.296 7.902 6.414l2.162 2.952c5.275 4.665 11.974 10.822 17.514 16.53l-1.198-1.172c-.958-.62.242.788.733 1.452 4.081 4.419 8.379 7.758 10.559 10.729 5.267 4.427 13.659 12.197 19.418 17.522.974 2.017-7.672-6.787-10.303-8.768l5.047 5.043c-3.125-3.112-4.555-4.146-6.721-5.719 4.325 4.519 6.234 5.517 10.558 9.576-.468-.185.005.462 1.934 2.399l.895.203c.007.063.195.304.77.923l7.669 7.246c-1.435-1.73-1.21-2.107-3.133-4.038.486.89-1.188-.704-3.11-2.638 1.915 1.463-1.689-2.071-1.462-2.217 3.856 3.875 8.651 8.577 11.28 11.017l.505 1.142c3.603 3.765 7.67 7.477 10.076 10.067l-.957-.618c4.322 4.517 8.879 8.663 12.492 12.898 4.306 3.577 9.572 8.237 13.174 11.078 2.134 1.313 11.051 12.083 16.074 15.949.255.343-3.362-2.743-5.034-4.104 2.893 3.02 5.754 4.859 6.248 6.219-6.489-6.78.012.701-3.1-2.164 3.114 3.098 6.467 6.295 8.146 7.664-5.03-5.023 2.384 1.188-2.894-3.713 2.05 1.703 4.376 3.782 6.741 6.014l2.278 2.165c.537.528 1.06 1.074 1.583 1.651l.325-.288c0 .373.283.263 1.246-.545.019-.02.559-1.101.54-1.081.548-.499.114.095-.239.62-.344.516-.607.964.651-.199.308-.424.429-.623 1.228-1.475a105.49 105.49 0 012.15-2.239l4.738-4.7c3.125-3.093 5.882-5.914 6.45-7.34 3.81-3.133-6.264 6.949-.617 2.131-2.734 3.354-7.287 7.197-7.862 8.628 2.861-3.104 1.45-.728 3.379-2.647l3.063-3.591-.753.72c5.18-5.986 14.219-14.639 21.28-21.837 5.608-6.47 9.144-11.25 16.435-18.446-1.886 2.391 6.259-5.773 2.162-.75 3.575-3.129 6.62-6.702 6.5-6.955-3.014 2.886-1.098.978-3.674 3.37 1.45-1.904 5.326-5.759 7.062-7.198-.752.719-.429.482-.521.716 3.674-3.369 1.463-1.912 3.913-4.552 1.124-.49 5.703-5.534 8.19-7.693l2.919-3.822c-1.555 2.148 3.337-3.12 4.142-3.378 2.207-2.625 3.865-5.02 7.625-8.619-1.365 1.675 3.581-3.134 3.946-2.896 6.59-6.013 9.613-11.258 16.014-16.794-.115.256-1.122 1.659.698-.01 1.29-1.458 3.731-3.828 5.168-5.332l-.037.055.067-.085c.704-.736 1.119-1.226 1.064-1.317 2.221-2.811 3.217-4.41 7.919-9.612-.709.019-4.756 4.333-6.455 6.254l-1.224 1.905c-2.017.975-4.376 4.556-5.689 5.52 2.36-3.581 11.065-11.987 15.822-17.494-3.609 2.648-10.492 9.38-16.373 15.378l2.822-2.409-3.101 3.115 3.375-2.641c-3.009 2.879-5.459 5.518-8.141 8.158 3.108-3.122 4.798-3.859 2.96-2.172-3.81 3.133-3.396 3.838-6.07 6.471 1.508-1.445 3.436-3.36 2.395-1.925-5.646 4.817-6.79 6.501-11.99 10.816 1.165-.015-5.888 6.002-6.129 7.186l2.256-2.16-4.336 5.031c-4.789 3.853 3.349-4.304-3.559 1.94-6.125 6.01-5.364 6.457-10.09 11.272 1.23-1.912 4.722-5.988 8.58-9.827l-2.495 2.166c1.036-1.431 6.402-6.714 9.079-9.351-3.999 4.782 2.175-1.934 4.479-3.625.037-.697-2.729 2.173.334-1.42-3.112 3.125-3.54 3.608-7.632 7.451 8.726-8.426 6.566-8.855 14.328-16.063-3.301 3.599 1.679-.728 2.254-.982 1.584-1.663 4.798-5.035 6.07-6.472l-1.703.75c4.155-4.566 6.679-5.072 11.22-10.595.369-.939-4.522 4.33-3.673 3.369 6.587-7.185 9.835-8.898 16.307-14.654.203-.489-.17-.719 1.717-3.109-.387.958 1.343-.479-.854 2.136 2.164-1.923 4.376-4.555 6.068-6.469-4.423 4.088 1.33-2.152 1.943-3.107 2.252-2.156-.387.957-1.66 2.396 1.846-1.693 4.37-3.375 4.947-4.808.37.231-4.155 5.739-7.357 9.098l2.26-2.164c-1.37 1.678-1.698 1.919-3.94 4.068 2.382-1.916 2.428-1.446 2.142-.731-.326.238.085-.228-.227-.002-1.845 1.691-3.119 3.129-2.549 2.88-1.185 1.994 2.705-2.199 4.104-3.195l2.617-2.779 7.885-10.483c3.773-4.075 5.848-5.528 8.991-8.28l.462-1.156c3.45-3.378 6.782-6.491 5.033-3.862-.238.007-.662.485-1.42 1.21-.051.145-.188.35-.377.592-.051.092-.069.151-.108.23l5.951-6.348c-5.704 6.712.321.94-.103 2.595l3.035-3.236 1.114-1.188c.179-.189.351-.373.513-.547l.805-.713.226-.196c.016-.021.105-.082.19-.14l.242-.16c.315-.204.603-.371.842-.501.48-.263.759-.381.744-.368a12.1 12.1 0 00-2.069 1.083l-.14.099-.248.173a64.83 64.83 0 01-.376.249l-.036.023-.005.002-.319.288-.008.006-.016.012-.058.042-.091.062c-.102.063-.122.047-.083-.027a1.36 1.36 0 01.103-.153l.038-.05.002-.003.33-.299.006-.006.012-.012.024-.025.11-.111c.163-.161.346-.341.6-.567a12.774 12.774 0 011.997-1.181c.604-.224 1.23-.436 1.817-.576a21.676 21.676 0 011.608-.202c.127.042.432.119.877.186.446.08 1.034.131 1.701.361.336.102.695.217 1.071.349.362.167.741.36 1.13.57.4.197.772.458 1.139.758l.558.454.278.238.034.03.317.351.032.037.064.075.525.608c.309.419.692 1.045.977 1.602l.213.434.131.368.238.744c.169.495.247 1.001.297 1.507.152 1.007.033 1.997-.106 2.897-.226.89-.464 1.712-.849 2.357l.106-.435c-.333.598-.66 1.277-1.194 1.863-.247.299-.53.625-.792.904l-.495.474-2.124 2.096a190.758 190.758 0 00-4.177 4.345c.231 0-2.459 3.824-3.683 5.73 4.486-4.228 2.04-1.503 2.604-1.637-.47.431-1.285 1.238-1.335 1.376-.525.722.978-.715 1.215-.724 2.235-2.396 4.532-4.797 6.446-6.896a79.946 79.946 0 002.529-2.882l.615-.758c.356-.447.674-.89.95-1.313.526-.864.843-1.724 1.059-2.42-.529.973-.997 1.894-1.63 2.642-.287.37-.641.802-.888 1.089l-.427.51c-.565.688-1.144 1.407-2.013 2.13a32.868 32.868 0 011.672-2.027 91.8 91.8 0 01.478-.53l.29-.322.513-.613c.706-.812 1.235-1.799 1.708-2.848a10.983 10.983 0 00.308-7.159 19.834 19.834 0 00-.303-.932 14.174 14.174 0 00-1.246-2.229c-.074-.11-.103-.145-.121-.167l-.075-.093-.15-.187-.306-.376-.038-.047-.02-.024-.4-.443-.024-.022-.195-.175-.399-.346c-.544-.457-1.103-.903-1.765-1.231l-.506-.336a6.477 6.477 0 00-1.18-.637 19.645 19.645 0 00-1.266-.504c-.353-.117-.598-.16-.598-.16l-.521-.049c-.332-.017-.808-.079-1.373-.042-.566.044-1.232.11-1.926.242-.702.193-1.381.382-2.151.713a14.15 14.15 0 00-1.866 1.078l-.281.197c-.112.08-.084.068-.132.107l-.657.583-.479.434-.031.034-.061.066-.113.122-.183.199-.16.173c.183-.221.323-.404.437-.563l.041-.059.02-.029.001-.001.451-.409.003-.003.005-.007.011-.013.082-.1.142-.184.239-.338.123-.173c.072-.079.302-.257.475-.391.383-.291.855-.615 1.479-.958l.492-.255.446-.178c.315-.12.669-.243 1.064-.364 1.553-.409 3.979-.846 7.15.372-.365-.204-1.35-.686-2.805-.877-.73-.086-1.566-.178-2.479-.063-.456.045-.932.096-1.413.191-.478.121-.97.265-1.465.431-.829.197-2.633 1.261-3.297 1.809l-.544.472-.637.571-.125.132-.252.264a50.466 50.466 0 01-2 1.99l-.888 1.657c.276-.704-5.09 4.579-1.6.503l2.92-3.235 1.072-1.188.252-.279.122-.135.061-.066.029-.033.008-.008.549-.498.017-.015.488-.443.218-.197.025-.023.084-.063.174-.125.339-.234c.444-.298.851-.537 1.19-.723.686-.373 1.08-.532 1.051-.515.031-.02-.421.135-1.099.453-.337.157-.726.355-1.13.588l-.897.545-.725.427-.582.524-.009.006-.017.012-.032.024-.06.044a6.178 6.178 0 00-.098.071l-.085.062.221-.227.026-.028.608-.55.066-.056.15-.126.36-.303.101-.085.052-.044c.011-.01.032-.027.111-.084a15.65 15.65 0 012.642-1.532c.569-.234 1.073-.384 1.645-.552l.847-.222c.286-.047.577-.087.869-.122 2.341-.37 4.706.159 6.36.774.813.354 1.47.712 1.92.968.457.249.679.441.679.441l-.16-.104c-.1-.069-.25-.154-.439-.246-.374-.19-.882-.429-1.395-.641a8.024 8.024 0 00-1.44-.468l-.669-.154c.449.121.885.253 1.301.396.412.151.797.351 1.174.536.374.19.733.387 1.074.586.333.209.631.448.927.675.293.23.571.462.835.693l.195.173.095.086.024.021.012.011.518.574.017.019.128.154.47.572c.756 1.016 1.577 2.555 1.789 3.337.261.857.482 1.606.542 2.27.147 1.336.109 2.273-.035 3.004-.132.732-.234 1.26-.446 1.766-.194.508-.4 1.012-.686 1.678-.343.635-.746 1.486-1.51 2.515-.198.253-.416.521-.657.804l-.38.434-.204.224-.103.104-.861.883c-.645.676-1.439 1.538-2.434 2.647-2.168 3.1-4.949 5.982-10.22 11.025 3.627-3.836.054-.712 1.188-2.386-4.001 3.612-4.901 5.281-6.694 7.438-1.216.723-2.106 1.211 1.329-2.153-.09-.942-4.383 4.562-5.225 4.341-11.248 11.28-7.311 10.741-21.141 23.245l.279-.708c-8.095 8.628-13.174 13.196-20.748 21.107l-6.642 5.552c1.28-1.447 4.538-5.52 2.564-4.071 3.517-2.414 6.471-5.754 9.962-8.653.183-.47-1.222.728-1.877 1.206 1.934-1.923 3.148-2.644 5.599-5.286-.236.01-3.151 2.651-1.124.49l3.803-3.125c4.474-4.797 1.472-3.095 7.071-8.383-.71 1.314-2.339 3.819-4.375 6 2.554-2.422-3.133 3.499-.682 1.41 3.135-4.032 5.221-5.407 9.705-10.453-.497.622-.558.857-1.702 2.058l7.104-6.725c-1.974 1.448 5.423-6 4.391-5.746-7.53 7.207-5.13 5.277-13.748 13.453 2.289-2.465 4.958-5.927 6.029-7.728.088-.058.222-.167.487-.418.897-1.668-.514-.464-1.163-1.163-3.354 4.312-6.311 6.48-10.556 11.277-.48 1.22 3.094-2.152 5.246-4.495l-3.739 4.227.614-.954-10.232 9.986c1.896-1.936 2.332-2.8 3.171-3.961-1.319 1.29-2.708 2.484-4.189 3.751.641.063.708.494-.571 1.76-6.588 6.421-10.52 9.72-13.322 11.718l-.732.782c1.451-.729-3.971 5.269-5.617 7.652-.273-.473-3.575 3.128-5.641 4.813-.57 1.426 1.353.686 3.985-1.247 4.006-4.789 2.069-2.859 3.592-5.492l6.685-7.426-1.235 1.919c3.672-3.371 6.603-7.204 6.789-6.501-1.564 2.156-4.816 5.049-6.365 7.192l2.491-2.167c-3.672 4.546-2.526 1.686-7.197 6.966 2.208-1.452-.424.478-2.302 2.862 1.974-1.447 8.652-8.868 7.8-6.73-2.308 2.868-9.458 7.952-12.243 12.014l.095-.24c-5.133 4.968-6.541 7.109-8.201 9.23-2.356 1.941-5.031 5.201-7.337 7.554l-.13-.244-3.208 3.364c1.225-1.905 3.86-3.842 6.633-6.714l-.697.004c3.665-2.843 5.21-5.639 7.435-8.461-3.373 3.973-10.456 10.286-10.641 11.827l-2.622 1.922-.961 1.213c-1.956 1.43-.64-.711 2.564-4.072.657-.482.986-.724.886-.479 1.368-1.679 2.498-3.347 6.265-6.954l-1.783 2.151c4.615-4.565 8.654-8.873 9.885-10.786-6.771 6.482-13.319 12.969-19.525 19.207-1.052 2.62-2.789 5.237-2.996 6.901-4.041 4.311-9.609 10.079-13.502 13.438l.189-.477a65.657 65.657 0 00-4.712 4.808c-2.061 1.678.894-1.665-.512-.466l-5.736 6.225c.039-.699 5.069-5.732 7.436-8.146-.423.479-1.278 1.444-.941 1.196 2.915-2.645 7.532-8.385 9.225-9.123 1.271-1.438-2.399 3.104 2.211-1.456 3.25-2.891 3.821-4.319 3.999-4.783-.138-.236-5.075 4.563-3.61 2.648-2.366 2.413-3.077 3.605-6.313 6.481 2.346-2.391 5.183-5.986 6.735-6.958 4.334-5.031 2.785-5.236.529-3.077.801-.251-8.204 8.882-1.705 3.099-2.405 3.112-7.442 8.154-10.83 11.984l.094-.235-4.392 4.568c.532-.729 1.803-2.167 1.662-2.396l-5.704 6.705c3.156-3.829-2.398 1.932-4.137 3.373-.379.95-2.593 3.583-.104 1.422 2.822-2.407 1.367-1.677 3.723-4.076l-2.915 3.817-.333.244-1.657 2.396c-4.61 4.559 1.146-2.86-4.368 3.376l1.267-.263c-6.876 6.729-16.177 14.898-20.751 19.937 1.04-1.612 1.164-2.656-.932-1.106 2.159-1.985 6.307-6.168 9.231-9.188.66-.483-3.119 4.308-6.457 7.429 2.388-.742 7.625-8.62 8.839-8.165 8.52-7.937 5.334-6.941 12.808-13.435-.276-.469 1.803-2.167 1.841-2.863-2.675 1.459-9.314 9.356-14.059 13.676.416-.471 1.253-1.42 1.357-1.665-3.349 3.131-4.604 4.552-6.729 6.953l.329-.24c-3.59 4.317-2.725 2.168-5.216 4.332-.846.957-4.189 4.085-3.396 3.838l-4.568 3.86.619.213c-2.353 2.401-3.147 2.647-5.049 5.056l.272.472 6.033-5.774c-2.87 3.114-.478 1.19-3.688 4.557 1.633-2.04.932-1.442-.266-.332-.599.555-1.322 1.237-1.939 1.783-.309.272-.591.511-.818.681a3.222 3.222 0 01-.303.206 1.016 1.016 0 01-.28.144l-1.936 1.965-1.357 1.371c-.386.348-.688.481-.681.498l.554-.414.492-.541c-.209.164-.399.335-.592.474l-.583.313c-.373.197-.69.418-1.041.529l-.958.401c-.313.113-.633.187-.95.285-.631.226-1.323.286-2.147.376a23.794 23.794 0 01-1.36-.081c-.493-.07-1.022-.221-1.617-.359 2.74.948 5.377.792 7.76-.284 1.206-.491 2.228-1.593 3.411-2.644.565-.524 1.236-1.144 1.78-1.682.353-.389.719-.805 1.103-1.253l-.931 1.087c-.103.112-.131.167-.298.33l-.487.479-1.018.995-2.157 2.092c-.785.591-1.624 1.076-2.527 1.405-1.788.679-3.665.888-5.186.684-.744-.154-1.438-.235-1.98-.44-.542-.202-1.005-.334-1.309-.493-1.361-.541-2.386-1.664-3.423-2.568-.965-.888-2.195-2.006-2.496-2.407-1.003-1.116-1.961-2.237-3.13-3.448 2.359 2.21 2.241 1.527 2.645 1.471.202-.028.534.1 1.371.823l2.297 2.07 1.981 1.834c.392.3.842.537 1.299.834.5.21 1.021.466 1.603.646-.37.021-1.852-.583-2.312-1.018.474.509 1.417 1.09 2.693 1.404 1.255.385 2.861.404 4.396-.019.783-.168 1.509-.529 2.228-.861.658-.447 1.325-.836 1.845-1.462a6306.07 6306.07 0 002.813-2.915c-.535.23.002-.428-.116-.464.034-.154-.618.337-3.317 2.696.462-.347.446-.218.061.254-.097.116-.213.264-.358.412l-.54.41c-.206.144-.419.326-.677.471l-.857.412c-1.232.512-2.901.902-4.64.608-1.738-.285-3.436-1.046-4.666-2.419l.647.048c.31.033.623.008.628-.005-.016.034-.459-.394-1.125-1.026a3018.46 3018.46 0 00-2.393-2.28 3225.664 3225.664 0 01-2.403-2.472l.484.429c-1.456-2.212-5.275-5.129-8.41-8.708-2.633-2.215-11.765-11.68-8.377-7.065-2.646-3.38-5.759-5.558-9.125-8.767l3.859 4.338c-5.265-4.426-3.599-3.301-8.144-6.512-.232-.552-.964-1.548-.008-.93-6.479-6.54-15.61-16.002-19.909-19.341-4.563-4.614-4.593-6.025-11.302-12.192-1.438-1.273.509 1.604-3.585-2.826-.244-.331 4.538 3.669-.255-1.031-3.832-2.93-7.691-8.19-12.48-12.197-2.16-2.484-6.25-6.452-5.054-5.97 3.597 3.76 8.876 8.891 9.841 9.512-.724-.292 2.407 2.825-.469.28 5.29 5.83 3.83 3.388 8.633 8.56.487.201-2.169-2.959-3.366-3.9.464-.511 10.07 9.599 6.221 4.581-5.288-5.372-7.886-5.938-11.992-11.07 2.148 1.555 4.793 4.701 7.657 6.542l-3.6-3.992-3.107-2.402.235.092c-6.258-7.149-6.703-5.699-12.946-11.453 3.136 3.813-1.649.042.758 2.863-4.074-3.949-6.955-6.96-6.494-7.474 7.902 7.106.942-.09 8.365 6.361-.964-1.313 2.365.938-1.715-3.25-5.006-4.31.988 1.8-3.819-2.685-.231-.318-.472-.647-.239-.557-2.39-1.883-2.401-2.585-5.267-4.891l.71.516c-2.892-3.483-3.822-3.152-6.244-6.219.736 1.46-2.14-1.546-4.067-3.021 2.645 2.918 3.632 4.943 9.149 10.403.949.377.707-.184 3.1 1.933l-3.603-3.533c.817.724 1.477 1.235 2.24 1.884l3.278 3.575c-4.549-4.14-2.863-1.842-5.006-3.391-3.851-4.101-3.359-3.201-5.767-5.795.671-.169-6.949-8.384-11.257-13.231l2.108 2.141c3.59 3.061-1.938-2.638-1.946-2.876l-2.633-2.214c.485.427 1.214.96.24-.133-3.359-3.203-3.584-2.596-6.938-5.792-.015-.478 3.105 1.94 1.19-.218-.5-.903-2.2-3.677-6.756-7.824-.396-.22-1.574-1.298-2.92-2.568.194.169.432.389.53.454l-2.638-3.143c2.857 2.068 4.794 5.167 7.666 7.246l.585-.165c1.928 1.925 4.706 4.379 6.103 5.387-2.873-3-3.59-3.52-6.952-6.726-.223-.697 2.267 1.44 2.625 1.748l-.704-.276c3.606 4.227 6.215 5.496 11.021 10.441.721.752.244.33.009.237 4.31 3.584 7.685 7.954 12 11.312l-1.448-1.054 13.708 11.938.187-.105c-.479-.654 1.432 1.267 2.4 2.354l-.007-.004 7.495 6.564a29.87 29.87 0 00-2.225-2.598c-.971-.628-5.521-5.459-5.267-4.427-1.932-2.401-5.76-5.556-7.204-7.295 2.649 3.149-2.387-1.651-3.109-1.944-.729-1.221-4.315-4.278-3.605-4.229-.486-.658 1.205 1.643 2.636 2.678 3.344 2.729-5.289-5.83-1.213-2.34-5.043-4.58-11.283-11.021-16.551-15.679l2.644 2.913c-2.158-2.255-7.453-7.402-7.684-7.952 1.678 1.601 3.59 3.521 5.753 5.552.475-.271-5.042-5.037-5.045-5.501l-6.708-5.474 2.647 2.688c-1.907-1.454-7.211-7.305-11.293-11.492 2.882 1.861 6.25 6.224 10.805 10.369 3.354 2.965-1.458-2.444 1.654.424-.656-.894-2.622-2.832-3.712-3.666l-1.087-1.272c3.132 2.204 9.009 8.288 13.389 11.87-.399-.3-.756-.552-.92-.608 2.885 3.245 6.005 6.351 9.117 9.216-1.434-1.727-2.159-2.253-3.116-3.103.002-.227 2.873 2.544 4.067 3.484-2.645-2.915-.245-.792-1.927-2.627 1.921 1.7 3.355 3.198 5.513 5.453.969 1.319-1.188-.704-1.184-.241 2.41 2.134 2.899 3.722 6.49 6.782-4.326-4.52 1.666.665 3.343 2.034l-.725-.757c1.672 1.133 2.874 2.313 3.596 3.528-1.921-1.7-3.596-3.528-3.355-2.739 1.208 1.184 2.411 2.364 3.848 3.636l-1.429-1.033 6 5.886c1.182.699 3.095 1.93 4.275 2.396 1.207 1.645 3.374 3.447 4.811 4.716l-.73-.528c2.415 2.828 8.42 8.487 9.126 8.766 1.682 2.063-14.6-11.878-1.163 1.163 5.035 5.03 3.817 2.452 6.926 5.088 0 0-.232-.092.008.238 2.153 2.252 2.633 2.213 4.554 3.914-1.217-1.424-3.126-3.343-3.841-3.86.948.377 4.562 4.611 6.474 6.074-2.63-1.75 4.089 4.425 2.164 2.951 4.097 4.663 9.128 8.998 11.753 10.975 2.42 3.524 5.286 5.139 9.854 10.218-.725-.758-2.153-2.021-3.131-3.116-3.1-2.4 4.815 5.182.263 1.27.96.851.25-.122-.733-.995-1.663-1.584-3.346-2.959-3.097-2.392l3.621 4.241-1.457-1.288 5.537 6.396c.233.092-.239-.556-.482-.886 6.731 7.107 14.882 14.78 20.887 20.9 1.063.075 4.9 3.7 9.16 7.844l3.237 3.156c.542.525 1.08 1.048 1.609 1.563l.619.591.369.335c.477.437.934.853 1.472.938.521.108 1.01-.027 1.329-.266-.33.349-.674.657-.863.938-.189.287-.219.574.115.775-.445.028-1.189.042-1.924-.409-.367-.219-.729-.533-1.129-.869a13.701 13.701 0 01-.604-.554 28.481 28.481 0 01-.906-.926c-.237-.555-3.117-3.794-.966-2.006-6.959-6.734.493 1.359-1.895-.294 1.869 1.821 3.9 3.744 4.769 4.47 1.005 1.059 2.466 1.371 3.59.875 1.165-.444 1.729-1.561 2.368-2.303l.115-.148c.031-.042.076-.098.158-.189l.417-.481.834-.954 1.685-1.889.238-.004 3.395-3.837c-3.02 2.889-3.434 2.183.57-1.43l-.436.491c2.407-1.937 6.649-6.732 10.079-10.089l1.977-2.625c3.436-3.361 4.185-2.904 5.65-3.648 5.369-5.284 7.95-8.854 11.439-12.931 1.974-1.448 10.014-9.364 6.106-4.818 4.572-5.035 2.193-5.476 11.214-12.935l-1.884 2.393c7.825-7.932 18.556-19.672 22.452-23.035-1.994 3.818 10.768-8.912 13.063-9.42-.595.187 2.297-2.842 2.619-3.382.754-.544 1.936-1.522 2.896-2.853-3.252 2.893 1.232-3.087-4.28 3.147 2.359-3.585 5.711-7.894 12.253-14.374l.274.471-5.265 5.038c.795-.245-1.878 2.386-2.838 3.6 9.793-9.374-.382 2.127 9.367-7.719.704-1.188.191-.476 2.643-3.117-1.186 1.21-1.145 1.682.79-.243l1.556-2.15c4.043-2.801-5.258 6.067-1.902 3.585-3.49 4.076-9.887 10.785-8.19 10.04 6.352-6.005 4.667-6.449 11.343-12.692l.891-.485c2.134-2.41 2.174-3.105 3.219-4.547.228.003.892-.488 2.384-1.915 3.357-4.315 5.811-6.956 8.826-11.018-9.027 9.812-8.416 7.688-17.789 17.761 1.368-1.678 8.1-8.636 8.005-9.572l.283.465c2.967-3.355 5.935-6.707 10.028-10.554l-2.214 2.633c5.003-5.521 9.313-8.182 12.845-12.954-1.499 1.433-2.679 2.635-3.527 3.597 2.543-2.875 5.979-6.236 8.985-9.117l5.475-6.707c.132.238 4.003-3.61 2.437-1.453 4.669-4.102 6.18-6.725 8.621-9.351 4.888-4.095-3.713 4.067-3.638 5.022 6.359-6.015 12.761-12.729 15.917-16.555-1.337 1.186-2.015 1.735-2.041 1.581.305-.07 2.768-2.593 4.161-3.98l.712-1.197.058-.05.015-.012.129.127v.001l.005.008.02.021c.017.016.04.034.068.052.005.002-.02-.008-.006 0 .042.02-.024-.008.013.007a.436.436 0 01.146.073c.01.011.076.059.071.078a.112.112 0 00.009.044l.014.036c-.014.028.056-.005-.03.086.048-.044.058-.058.05-.056l.002-.015.01-.023c.001-.018.047-.008.032-.035-.036-.051.032-.048-.024-.099.022-.056-.125-.119-.124-.139-.031-.001-.048-.001-.05-.006 0 .012.002-.039.009.021.008.052.024.103.049.15s.057.091.096.13l.063.053c.011.005.08.062.019-.005l-.407-.496-.197-.25-.001-.002.328.363h-.003l-.002.001-.005.001h-.005c-.004-.003.003-.019.015-.05-.01-.001.021-.076.018-.134.036-.04.035.003.083-.038.037-.015.04.029.098.008l.01-.002.005-.001h.002l-.309-.341.003.003.011.012.088.099.176.199.351.402.038.044-.024-.013-.045-.032a.384.384 0 01-.139-.255.43.43 0 01-.012.398c-.01.029-.008.068-.055.078a.066.066 0 00-.022.047c.021-.008-.043.055-.103.114l-.169.167-1.259 1.264c-.78.793-1.433 1.482-1.88 2.02a109.917 109.917 0 012.591-2.665l.571-.562.276-.268c.031-.04.017-.039.031-.055.013-.025.059-.027.081-.046.004-.028.02-.047.05-.062.048-.007.032-.043.051-.064.008-.025.064-.039.067-.069-.012-.057.096-.111.075-.174a.31.31 0 01.052-.103.171.171 0 01-.001-.098c.018-.158.056.054.194.054l.051.006c.021.004-.043-.07-.061-.101l-.174-.249-.176-.251-.088-.126-.045-.063-.022-.032-.006-.008c.533.59.147.163.267.294h-.001l-.003-.002a.322.322 0 01-.087-.107c-.019-.053-.046-.101-.093-.115-.118-.188-.366-.231-.631-.273-.121-.034-.327.046-.383.038.021-.001.039-.015.049-.04a.109.109 0 00.01-.043v-.027c.002-.013-.054.04-.078.057l-.383.312-.195.16-.099.081-.024.021.27-.245-.006.005-.011.012-.046.045c-.972.978-2.049 2.092-3.262 3.381-.238.007 1.23-1.913-.7.012-4.379 4.556-.668 1.667-1.794 3.331 1.644-1.795 2.903-3.056 4.039-4.079a34.339 34.339 0 011.644-1.394l.814-.633.001-.001a61.94 61.94 0 00-.346.314l.003-.002.007-.004.014-.009.027-.017.056-.034.111-.067.224-.135c.139-.079.324-.204.432-.246.046-.049-.194.246-.392.494l-.152.19-.07.087-.017.021-.008.01.376-.34h-.001v.001l-.002.003-.004.005-.026.041-.112.174c-.241.037-2.406 2.191-3.142 2.729l-.155.957c-.187-.7-3.98 2.417-6.529 5.299 3.065-2.422 2.308-1.698 3.56-1.939-3.341 4.298-4.779 3.838-8.553 8.626.178-.463 3.809-4.306.471-1.187-2.692 2.654-1.99 2.643-3.673 4.546 1.649-2.389.856-2.145 2.606-4.771 4.702-4.795 1.92-1.911 6.401-6.714l-4.242 3.617c3.964-4.084 2.503-3.349 2.693-3.822-7.248 6.495-4.617 5.74-9.136 10.064-1.878 2.385 4.195-4.088 1.126-.489-4.188 4.081-.701 1.184-5.181 5.985l.606-.947c-1.638 1.199-2.77 2.872-4.373 4.551-1.693 1.917 3.328-.76-4.069 6.687.261-.466.329-.666.286-.708l4.136-10.345a1446.25 1446.25 0 01-25.182 24.608c-2.658 1.444 5.715-6.716 4.909-6.457l4.097-3.848c.034.48-8.243 8.401-4.201 5.269 6.829-7.199 10.308-10.086 16.432-17.27-2.676 1.458-8.656 8.872-13.455 12.73 1.857-1.778 3.325-3.379 4.728-4.956l-13.295 12.784-.892 1.186c3.186-3.048 5.394-5.153 5.693-5.409-4.186 4.079-7.335 7.901-7.164 8.621l.75-.718-1.354 1.632a947.827 947.827 0 00-2.996 2.817zm-269.029-36.934c.294.208.542.356.75.44-.217-.086-.09.126-.75-.44zm319.097 1.511l8.389-8.14 4.15-4.021 1.025-.998c.157-.138.372-.392.57-.629.188-.245.418-.461.561-.738.677-1.051.979-2.29 1.011-3.515-.107 1.103-.389 2.168-.972 3.025-.246.454-.593.82-.938 1.167-.356.393-.62.546-.922.815l-3.208 2.621c-1.91 1.54-3.313 2.612-3.891 2.915-.577.304-.33-.163 1.061-1.7.695-.769 1.676-1.806 2.981-3.148l2.208-2.248c.225-.209.377-.417.547-.626l.259-.319.193-.374.202-.38.123-.423c.039-.143.093-.285.124-.433l.042-.46c.063-.005-.119-1.29-.164-1.274.071.628.108 1.397-.188 2.168-.091.402-.348.759-.565 1.138l-.434.517c-.154.18-.38.382-.57.576a298.647 298.647 0 00-4.982 5.053 638.078 638.078 0 00-5.94 7.657l-2.849 3.765c-.73.983-1.174 1.608-1.125 1.609 1.216-.724 2.36-2.405 4.197-4.092l-.895.492zm-5.391 2.446c-3.223 3.026-2.316 2.509-2.626 3.169l3.216-3.349c-.459.372-.726.514-.59.18zm-2.263 3.158c.355-.347.663-.638.844-.771l-.844.771zm-16.301 2.326l.311-.332-2.29 2.208c.327-.271.919-.819 1.979-1.876zm6.77-5.91l.42-1.063-2.145 2.071c.383-.091.758-.212 1.725-1.008zm21.436-19.323c.225-.417.661-1.001 1.187-1.652l.84-1.015.22-.261.11-.131.056-.065.001-.002-.109.099.004-.004.007-.007.016-.015.031-.029.489-.474c.183-.197.279-.226.382-.296.109-.065.191-.155.313-.225.277-.098.522-.281.768-.336.24-.064.451-.157.615-.221.164-.043.28-.101.326-.176.171-.062-.008-.145-.402-.213l-.728.016c-.277.034-.573.135-.889.203-.156.069-.301.155-.456.228-.153.083-.311.125-.474.279l-.488.392-.124.099a5.004 5.004 0 00-.076.075l-.229.224-1.89 1.849c.021.109-.174.424-.542.909 1.323-1.212 2.279-1.948 2.04-1.161-3.854 2.662-2.495 3.343-6.169 6.712-.808 1.433 4.229-3.609 5.171-4.802zM176.816 307.365c-.061-.139-.305-.583-.664-1.189l2.701 2.261c4.328 4.521 7.233 8.705 11.765 12.138 1.726 2.003 2.432 3.293 3.145 4.486-.895-.93-1.725-1.807-2.399-2.555-11.972-10.362-4.973-6.671-14.548-15.141zm50.089 51.656c-.484-.429-.72-.521-.72-.521 10.703 9.07 19.08 16.974 24.378 22.336-.71-1.357-5.24-6.39-7.376-8.794l2.38 1.644.966 1.546 3.828 3.157c-.729-1.225-3.601-3.993-5.296-6.069-.234-.094-6.702-5.701-8.617-7.161l4.569 5.079c-1.2-1.406-7.684-7.72-10.315-10.163-.235.135 3.853 4.793 4.805 4.942.246.794-4.798-4.244-1.904-.762-4.071-3.485-9.837-9.74-12.49-12.665l-.011-.934c-2.88-3.239-2.623-1.512-5.991-5.413 4.559 4.379-.25-1.262 3.339 2.259-.961-1.309.464-.511-3.132-4.038-3.576-2.354-3.372-4.137-6.714-6.401-1.683-2.063 2.383 1.647-1.221-2.119-4.547-3.906-4.533-3.432-5.239-3.25 3.828 4.077 5.019 3.863 8.143 7.204l-7.19-5.669c1.077 1.293 1.943 2.181 2.709 2.887-1.336-1.248-2.546-2.233-3.641-3.017a3948.5 3948.5 0 01-1.71-1.259c3.64 3.648 6.865 6.895 7.248 7.656l-.718-.287c1.092 1.488 3.35 3.436 4.478 4.247 3.286 3.239 6.846 6.198 7.279 7.19l-1.436-1.041c4.075 3.951 4.549 4.372 9.599 9.416zm134.581-75.409c-3.221 1.641-6.599 3.623-17.805 15.105l.839-.947c-6.213 5.221-10.491 11.802-17.997 18.207 3.078-3.673 2.923-3.464 5.968-7.871l-3.397 3.844c.573-1.433-2.816 2.401-5.493 5.038l1.833-2.856c1.742-1.447 5.93-5.528 5.692-5.524-.849.962 6.104-4.813 9.412-8.418-.703.01-7.862 7.449-5.169 3.624-2.635 3.109-3.337 3.121-6.218 6.245 2.643-3.117.24-1.186 2.132-3.581l-4.806 5.041c-.244.013 6.914-7.427 2.454-3.818-1.791 2.154-7.287 7.194-7.009 7.661l-.235.007c-3.771 3.609-1.096 2.151-5.84 6.47.134.241 1.128-.493 2.713-2.155 1.289-1.455 1.242-1.922 4.017-4.801 1.559-.975-3.445 3.373-.99 1.904 1.221-.729 7.249-7.674 5.736-5.052l-3.763 3.604c.278.468-2.41 3.114-2.034 3.34-2.115 2.391-4.662 4.096-6.638 6.721-.714 1.197 1.403-.022-2.599 3.589-3.526 2.422-12.183 11.293-15.387 14.654l-2.634 3.111c.474-.016 5.457-5.521 3.91-3.378l-4.39 4.569.202-.489c-1.517 1.453-2.88 3.125-4.152 4.562 1.126-1.664 4.463-4.785 3.433-4.532-2.18 2.026-2.645 2.202-4.505 4.212.395-.449.72-.852.612-.853-4.426 4.089-3.676 4.547-4.617 5.74-3.774 4.786 4.783-3.845 4.637-2.897L277.115 366.4c.941-1.194 1.891-2.395 1.328-2.151-3.244 2.886-.371-.232-4.656 4.09.838.226-5.088 5.751-7.82 9.099-1.638 1.202-1.975 1.45 1.126-1.662-.686-.005-4.775 4.351-6.217 5.729a50.152 50.152 0 01-1.438 1.656c-.3.272-.582.588-.909.802-.337.196-.635.439-.948.534.828-.153 1.076-.22.717.142-.095.078-.219.207-.407.302-.19.091-.427.193-.712.31-.284.121-.64.142-1.036.222a5.959 5.959 0 01-1.35-.053l-.24.036c.797.263 1.717.289 2.637.142a6.016 6.016 0 002.595-1.22c.753-.656 1.5-1.373 2.27-2.075l2.082-1.963c2.675-2.552 5.088-4.952 6.295-6.513l-.611.953c5.407-4.811 10.498-11.738 13.506-13.441.041.476 1.086-.968 1.369-.506l3.471-4.053-.613.951 6.315-6.483-.1.239 6.489-8.166c-.156-.17-.403-.022.49-1.156a31 31 0 012.406-2.548c.004-.006.004-.006.003-.008l.002.002c1.617-1.521 2.897-2.335 4.926-4.173l-5.91 5.99c-.208.761.584.541 3.693-2.181-1.183 1.202-1.466 1.917.042.474.09-.234 3.723-4.076 2.078-2.872 5.552-5.753 15.428-14.179 23.485-23.286-5.851 6.481 5.312-4.571-1.42 2.387 5.219-4.335 3.676-4.546 8.615-9.347.573-.257-2.673 2.631-3.479 4.063 8.274-7.92 12.949-14.376 20.917-22.076l.679.01c1.441-1.53 3.038-3.225 4.701-4.988zm15.066-15.926l4.472-4.709-.461.44 4.252-4.808c-2.918 2.649-5.13 4.104-1.411.032-.186.471 1.128-.494-.143.944 2.817-2.404 8.745-7.932 6.73-6.959-4.524 5.509-1.831.506-5.408 4.813 1.775-2.455 4.024-4.398 5.87-6.547-1.796 2.363 1.128.158 4.388-2.83 1.275-1.443 5.035-5.043 7.157-7.44-1.124.487.661-1.663-3.101 1.939a63.585 63.585 0 015.797-5.769c-.874.983-2.458 2.646-2.23 2.649 1.804-1.219 3.561-3.001 4.662-3.853l2.278-2.38c-.256.2-.49.362-.677.457l2.307-2.869c-3.297 3.596-1.74 1.446-1.882 1.215.28.465 2.267-2.17 3.434-3.362l-2.956 2.169c1.041-1.436 4.658-4.089 3.621-3.832-5.593 5.281-7.616 7.438-12.416 12.472l2.302-1.69c-5.33 5.764-3.946 2.896-10.155 9.136-2.309 2.867-9.342 9.38-8.91 10.068.609-.951-4.374 3.378-6.254 5.765-1.846 2.869-8.906 10.068-6.513 8.142 1.933-1.92 4.244-4.794 6.125-6.01l-3.63 3.844 2.73-2.174c-1.367 1.17-.97 1.32.022 1.147zm33.923-56.691l-.151.137.161-.159-.01.022z"/><path d="M120.339 253.211c-1.202-.947-3.838-3.625-3.591-2.831.237-.366 4.793 4.701 3.591 2.831zm-2.882-3.472c-.259-.115-.244.13-1.447-1.051l3.359 3.206-1.912-2.155zm-1.272-5.39c-1.917-1.468-3.117-2.414-5.754-5.091-.263-1.733 4.556 4.145 6.446 4.663-4.801-4.939-6.938-5.792-11.006-9.736 1.678 2.292 9.61 10.576 10.314 10.164zm3.093 1.235l-2.875-2.543.224.31 2.877 2.545zm52.276 65.047c.014.474 1.928 1.936 2.889 2.785-.721-.751-1.691-1.842-2.889-2.785zm-2.772-33.416L147.9 256.776l20.882 20.439zm72.833 100.473c-5.764-5.331-8.625-7.399-14.378-12.951 6.97 7.896 10.54 9.094 16.306 15.809l-1.928-2.858zm-3.789-.125c-.487-1.352 4.787 3.773 4.299 2.651-3.844-3.634-2.153-1.329-5.509-4.76l1.21 2.109zm-17.987-32.29l1.907 1.457-1.437-1.271zm53.086 32.773l-.515.711 2.918-2.646zm-1.028 1.423l.514-.712-.514.712zm-48.969-32.962l-2.407-2.593-1.436-1.037zm19.746 24.387l-2.375-2.098c.47.418 3.352 3.655 2.375 2.098zm47.423-9.652l2.555-2.888-.321.236-2.547 2.878zm-31.743 18.241c-.532.199.046-.424.491-.904l.472-.501a3.42 3.42 0 00.314-.365c.033-.058-.015-.042-.18.079l-.34.264-.244.197c-.09.073-.112.079-.178.126-1.319 1.423-.69 1.14-.335 1.104zm34.405-29.895c.367-.367.742-.766 1.078-1.175l-1.078 1.175zm0 0c-1.185 1.185-2.497 2.243-3.214 3.151 1.628-1.327 2.11-1.922 3.214-3.151zm13.5-13.655l-1.099 1.051c.934-1.262.438-.718-.41.395-1.128 1.15-.958 1.191-1.021 1.398l-.571.829.813-1.054c1.767-1.761 2.827-2.853 2.288-2.619zm56.04-44.832c-4.092 3.845-5.179 4.812-5.221 4.337-3.85 3.686-2.82 3.545-4.989 5.921 4.213-4.312 5.203-5.065 10.21-10.258zm-10.21 10.258c-.472.483-.921.946-1.468 1.508a36.427 36.427 0 001.468-1.508zm-64.521 47.62l2.071-2.861-.851.96zm80.751-63.637c-.752.72-1.921 1.911-2.588 2.401.047.471 3.338-3.12 2.588-2.401zm-20.368 10.244c-.561.244-3.006 2.878-4.1 3.852 1.516-1.451 3.201-2.182 4.1-3.852zm30.688-22.695c-.752.72-2.058 1.678-1.781.974-.944 1.195-1.935 3.099 1.781-.974zm-23.389 15.488l-.654.479-2.55 2.882zm-13.499 5.875c-2.746 3.362 5.588-4.103.589 1.419 7.108-6.463-.957.084 4.099-4.871-3.035 2.827-4.862 3.874-4.688 3.452zm4.688-3.452c.442-.41.913-.862 1.415-1.362-.566.543-1.021.982-1.415 1.362zm44.936-41.039c-.411.476-.679.814-.922 1.131.325-.375.625-.739.922-1.131zM362.17 274.56l-4.115 5.041c2.75-3.366 10.462-11.041 9.522-11.021-2.585 2.397-5.46 5.518-6.492 6.947l1.085-.967zm60.9-44.196l-1.796 2.161 2.523-2.416c-.776.637.165-.98-.727.255zm1.214-.724l-.487.468c.117-.094.273-.241.487-.468zm-41.344 29.005c-1.511 1.446-2.682 2.643-3.949 4.073.646-.472 4.413-4.076 3.949-4.073zm53.387-42.879l-3.185 3.344 3.528-3.597zm-14.859-18.907l-.65.476-2.541 2.872.658-.485zm1.89 15.318c-2.262 2.164-3.577 4.307-2.91 3.814l4.272-4.309c-1.452.729-1.18 1.201-3.759 3.597l2.397-3.102zm-114.285 98.43c.718-1.2 5.551-5.755 6.027-5.771-.531.73-2.98 3.371-1.236 1.919l3.12-4.308c5.31-4.569-2.975 4.535-5.204 7.185 5.109-4.956 6.21-6.838 11.565-12.188a37.225 37.225 0 01-3.739 3.082c-.6-.236 4.573-5.039 8.106-8.638-2.452 2.088-1.292.622.198-1.195.284-.311.458-.532.571-.701l.502-.62-.427.429c-.017-.078-.168-.04-.554.191-2.87 3.113-5.508 5.052-7.439 6.973 2.583-1.224-6.402 6.717-8.614 9.348l-2.729 2.863-1.045 1.048c-.284.135-.08-.256 1.38-1.985-1.197 1.466-5.683 5.857-5.055 5.666l-10.121 10.14c-.343.288-.693.569-.976.754-.308.394-.332.487-.251.476A48309.278 48309.278 0 01256 362.483l-.178-.146c.057.088.115.191.178.307.168-.03.4-.069.691-.252-.109.561.026.465.297.229l.098-.084c.045-.04.017-.006.228-.21.313-.299.611-.577.862-.796.501-.437.813-.635.673-.281-.34.418-.736.866-1.162 1.323-.288.303-.246.271-.32.353l-.173.177c-.238.227-.488.399-.664.473-.021.235.099.32.262.37.16.054.366.071.406.29.266-.199.505-.411.708-.618.052-.056.771-.81 1.165-1.26.892-1.004 1.591-1.901 2.283-2.798 1.385-1.793 2.74-3.585 5.54-6.228.042.474-1.414 2.382 2.113-1.216l-.85.961c5.415-5.993 5.028-3.86 7.91-8.159l.279.467c2.306-2.868 7.338-7.904 10.124-10.792l-.098.241c7.532-8.386 4.377-4.559 13.135-13.674l-3.678 4.548c3.263-2.903 3.485-4.071 5.747-6.235-.087.23.699-.011-1.323 2.147l10.18-11.507c2.307-2.87-.799.25-1.36.494zm14.272-13.163a52.088 52.088 0 002.01-1.982l-2.01 1.982zm-67.843 64.577l.32.313a.865.865 0 00-.32-.313zm82.571-80.934c-2.072 1.688 1.139-1.677 1.323-2.148l-6.728 6.741c.174.113-.332.94-.065.937l5.47-5.53z"/><path d="M330.449 287.358c-.129.328-.752 1.13-1.466 2.014l3.686-3.692c-.131-.086-.642.23-2.22 1.678zm8.378 6.953l-1.179 1.205-1.693 1.914zm-19.277 18.013c1.643-1.205 4.179-4.072 5.026-5.031-3.106 3.12-1.839 1.688-5.026 5.031zm6.182-1.514l-2.878 3.125.322-.237zm-93.754 30.622l-1.491-1.442c.67.673 1.119 1.101 1.491 1.442z"/><path d="M255.409 364.152c-.718-1.032-.569-1.061-.313-.959.272.118.709.423.905.392.136-.286.156-.498.062-.671-.021.033-.042.067-.062.088a4.147 4.147 0 01-.598-.27l.135-.152-.374-.327-2.15-2.103c.729 1.221 1.446 1.968.975 2.015-6.241-6.443-1.693-2.306-6.02-7.285l-7.136-7.041.651.496c-.603-.592-.898-.822-1.146-.985l-24.051-23.729c-4.551-4.142 1.939 2.868-1.647.043 5.039 5.036 12.25 12.798 13.193 12.71-.241-.098-.716-.289.244.793l3.338 2.489-2.643-2.913c3.353 2.507 12.719 12.062 14.167 14.034-5.524-5.235-3.333-2.026-10.552-9.799.206.468 1.348 2.07-.411.454 4.466 4.315 8.607 8.5 12.825 12.688a563.202 563.202 0 006.434 6.301l1.661 1.587.842.797.41.386.144.118c.386.311.762.599 1.117.843zm-85.664-85.167l.116.022c-.184-.133-.254-.165-.116-.022zm2.884 3.012l4.786 3.774-6.714-6.633-.839-.131c.68.5 3.199 2.661 3.968 3.706l-1.201-.716zm10.061 8.439c-3.597-3.296-3.827-2.692-2.137-.622-3.358-2.971-1.221-2.118-3.841-3.856-.229.372 3.848 4.096 4.8 4.938l1.178-.46zm25.209 25.649l-1.142-.797 2.342 2.434zm-1.142-.797l-2.324-2.416c.036.292.073.58.372 1.054l1.952 1.362zm-8.423-8.756a215.453 215.453 0 00-3.398-3.53l3.398 3.53zm2.605 2.817l-.026-.135-2.579-2.683a5499.55 5499.55 0 002.605 2.818z"/><path d="M204.433 312.872c-.093-.677-.236-1.435-3.745-4.78l.224 1.123 3.521 3.657zm99.032 19.324l-2.545 2.876.332-.241 2.543-2.875zm-15.905 15.372a51.064 51.064 0 00-1.479 1.801c.673-.738 1.186-1.349 1.479-1.801zm-9.63 13.622c-3.482 2.894 4.009-4.787-2.025.986-.794.247 1.621-2.873 4.537-5.518.036.479-2.544 2.874-.572 1.428 1.549-2.144 2.453-2.643 1.422-2.388 2.864-3.348 2.934-3.97 4.789-6.33-3.583 3.926-11.865 11.41-16.132 16.674-2.16 3.093.069 2.137.732 2.821.555-.236 7.438-6.97 7.249-7.673zm5.688-4.344c1.509-1.442 1.933-1.92 2.782-2.881-.474.013-1.6 1.679-2.782 2.881zm-40.375 4.712c-.377-.186-3.166-2.736-2.757-1.997l4.167 3.927c-.934-.967-1.151-1.418-1.41-1.93zm3.237 3.653l-1.827-1.723c.436.452.998.987 1.827 1.723zm-3.37-3.905l.133.252c.077.037.087.006-.133-.252zm-54.429-64.762c.242-.128-1.671-1.82-2.632-2.671.721.751 1.694 1.846 2.632 2.671zm-68.616-67.161l-1.446-1.74c.475.651.72.983 1.446 1.74zm-29.605-19.5c-.082-.01-.23-.098-.417-.228.182.135.323.215.417.228zm-.417-.228c-1.243-.935-4.364-4.535-5.807-5.509l.225.082-1.194-1.055-.438-.387c-.067-.058-.143-.131-.196-.169l-.121-.07-.236-.153c.218.112 1.039.955 1.737 1.643l2.301 2.26c1.547 1.497 3.007 2.859 3.729 3.358z"/></g></svg>